<svg xmlns="http://www.w3.org/2000/svg" xmlns:xlink="http://www.w3.org/1999/xlink" viewBox="0 0 900 900"><defs><style>.cls-1{isolation:isolate;}.cls-2{fill:#2a4e5c;}.cls-3{fill:#1b323b;}.cls-4{fill:#0f1c21;}.cls-5{fill:#fc0;}.cls-6{opacity:0.6;}.cls-29,.cls-7,.cls-90{fill:#fff;}.cls-31,.cls-32,.cls-33,.cls-34,.cls-35,.cls-36,.cls-37,.cls-38,.cls-39,.cls-40,.cls-41,.cls-42,.cls-43,.cls-44,.cls-45,.cls-46,.cls-47,.cls-48,.cls-49,.cls-50,.cls-51,.cls-52,.cls-53,.cls-54,.cls-55,.cls-56,.cls-57,.cls-58,.cls-59,.cls-60,.cls-61,.cls-62,.cls-63,.cls-64,.cls-65,.cls-66,.cls-67,.cls-68,.cls-69,.cls-7,.cls-70,.cls-71,.cls-72,.cls-73,.cls-74,.cls-75,.cls-76,.cls-77,.cls-78,.cls-79,.cls-80,.cls-81{opacity:0.7;}.cls-8{fill:#f48967;}.cls-25,.cls-86,.cls-88,.cls-9{fill:none;stroke-linecap:round;stroke-miterlimit:10;}.cls-9{stroke:#2c2e44;stroke-width:5.27px;}.cls-10{fill:#23263f;}.cls-11{fill:#333656;}.cls-12{fill:#171929;}.cls-13{fill:#ffb287;}.cls-14{fill:#dcfffc;}.cls-15{fill:#633127;}.cls-16{fill:#333557;}.cls-17{fill:#24253d;}.cls-18{fill:#c0f9f6;}.cls-19{fill:#4a2021;}.cls-20{fill:#425c60;}.cls-21{fill:#638f8f;}.cls-22{fill:#547077;}.cls-23{fill:#bccecc;}.cls-24{fill:#c9ae9f;}.cls-25{stroke:#8dccc9;stroke-width:4.21px;}.cls-26{fill:#b5927f;}.cls-27{fill:#e2f7f5;}.cls-28{fill:#fcbd9d;}.cls-30{fill:#57596e;}.cls-31{fill:url(#linear-gradient);}.cls-32{fill:url(#linear-gradient-2);}.cls-33{fill:url(#linear-gradient-3);}.cls-34{fill:url(#linear-gradient-4);}.cls-35{fill:url(#linear-gradient-5);}.cls-36{fill:url(#linear-gradient-6);}.cls-37{fill:url(#linear-gradient-7);}.cls-38{fill:url(#linear-gradient-8);}.cls-39{fill:url(#linear-gradient-9);}.cls-40{fill:url(#linear-gradient-10);}.cls-41{fill:url(#linear-gradient-11);}.cls-42{fill:url(#linear-gradient-12);}.cls-43{fill:url(#linear-gradient-13);}.cls-44{fill:url(#linear-gradient-14);}.cls-45{fill:url(#linear-gradient-15);}.cls-46{fill:url(#linear-gradient-16);}.cls-47{fill:url(#linear-gradient-17);}.cls-48{fill:url(#linear-gradient-18);}.cls-49{fill:url(#linear-gradient-19);}.cls-50{fill:url(#linear-gradient-20);}.cls-51{fill:url(#linear-gradient-21);}.cls-52{fill:url(#linear-gradient-22);}.cls-53{fill:url(#linear-gradient-23);}.cls-54{fill:url(#linear-gradient-24);}.cls-55{fill:url(#linear-gradient-25);}.cls-56{fill:url(#linear-gradient-26);}.cls-57{fill:url(#linear-gradient-27);}.cls-58{fill:url(#linear-gradient-28);}.cls-59{fill:url(#linear-gradient-29);}.cls-60{fill:url(#linear-gradient-30);}.cls-61{fill:url(#linear-gradient-31);}.cls-62{fill:url(#linear-gradient-32);}.cls-63{fill:url(#linear-gradient-33);}.cls-64{fill:url(#linear-gradient-34);}.cls-65{fill:url(#linear-gradient-35);}.cls-66{fill:url(#linear-gradient-36);}.cls-67{fill:url(#linear-gradient-37);}.cls-68{fill:url(#linear-gradient-38);}.cls-69{fill:url(#linear-gradient-39);}.cls-70{fill:url(#linear-gradient-40);}.cls-71{fill:url(#linear-gradient-41);}.cls-72{fill:url(#linear-gradient-42);}.cls-73{fill:url(#linear-gradient-43);}.cls-74{fill:url(#linear-gradient-44);}.cls-75{fill:url(#linear-gradient-45);}.cls-76{fill:url(#linear-gradient-46);}.cls-77{fill:url(#linear-gradient-47);}.cls-78{fill:url(#linear-gradient-48);}.cls-79{fill:url(#linear-gradient-49);}.cls-80{fill:url(#linear-gradient-50);}.cls-81{fill:url(#linear-gradient-51);}.cls-82{fill:#6b4b46;}.cls-83{fill:#c9d1d1;}.cls-84{fill:#1b333d;}.cls-85{fill:#404e54;}.cls-86{stroke:#e28156;stroke-width:2px;}.cls-87{fill:#567070;}.cls-88{stroke:#b8937f;stroke-width:1.81px;}.cls-89{fill:#c3e8e6;}.cls-90{opacity:0.26;mix-blend-mode:overlay;}</style><linearGradient id="linear-gradient" x1="431.3" y1="500.73" x2="655.3" y2="501.73" gradientUnits="userSpaceOnUse"><stop offset="0" stop-color="#fff"/><stop offset="0.99" stop-color="#8dccc9"/></linearGradient><linearGradient id="linear-gradient-2" x1="431.3" y1="500.67" x2="655.3" y2="501.67" xlink:href="#linear-gradient"/><linearGradient id="linear-gradient-3" x1="431.3" y1="500.61" x2="655.3" y2="501.61" xlink:href="#linear-gradient"/><linearGradient id="linear-gradient-4" x1="431.3" y1="500.56" x2="655.3" y2="501.56" xlink:href="#linear-gradient"/><linearGradient id="linear-gradient-5" x1="431.3" y1="500.5" x2="655.3" y2="501.5" xlink:href="#linear-gradient"/><linearGradient id="linear-gradient-6" x1="431.3" y1="500.44" x2="655.3" y2="501.44" xlink:href="#linear-gradient"/><linearGradient id="linear-gradient-7" x1="431.3" y1="500.38" x2="655.3" y2="501.38" xlink:href="#linear-gradient"/><linearGradient id="linear-gradient-8" x1="431.3" y1="500.32" x2="655.3" y2="501.32" xlink:href="#linear-gradient"/><linearGradient id="linear-gradient-9" x1="431.3" y1="500.27" x2="655.3" y2="501.27" xlink:href="#linear-gradient"/><linearGradient id="linear-gradient-10" x1="431.3" y1="500.21" x2="655.3" y2="501.21" xlink:href="#linear-gradient"/><linearGradient id="linear-gradient-11" x1="431.3" y1="500.15" x2="655.3" y2="501.15" xlink:href="#linear-gradient"/><linearGradient id="linear-gradient-12" x1="431.28" y1="500.09" x2="655.32" y2="501.09" xlink:href="#linear-gradient"/><linearGradient id="linear-gradient-13" x1="431.3" y1="500.03" x2="655.3" y2="501.03" xlink:href="#linear-gradient"/><linearGradient id="linear-gradient-14" x1="431.3" y1="499.97" x2="655.3" y2="500.97" xlink:href="#linear-gradient"/><linearGradient id="linear-gradient-15" x1="431.3" y1="499.92" x2="655.3" y2="500.92" xlink:href="#linear-gradient"/><linearGradient id="linear-gradient-16" x1="431.3" y1="499.86" x2="655.3" y2="500.86" xlink:href="#linear-gradient"/><linearGradient id="linear-gradient-17" x1="431.3" y1="499.8" x2="655.3" y2="500.8" xlink:href="#linear-gradient"/><linearGradient id="linear-gradient-18" x1="431.24" y1="514.68" x2="655.24" y2="515.68" xlink:href="#linear-gradient"/><linearGradient id="linear-gradient-19" x1="431.24" y1="514.62" x2="655.24" y2="515.62" xlink:href="#linear-gradient"/><linearGradient id="linear-gradient-20" x1="431.24" y1="514.56" x2="655.24" y2="515.56" xlink:href="#linear-gradient"/><linearGradient id="linear-gradient-21" x1="431.24" y1="514.5" x2="655.24" y2="515.5" xlink:href="#linear-gradient"/><linearGradient id="linear-gradient-22" x1="431.24" y1="514.44" x2="655.24" y2="515.44" xlink:href="#linear-gradient"/><linearGradient id="linear-gradient-23" x1="431.24" y1="514.39" x2="655.24" y2="515.39" xlink:href="#linear-gradient"/><linearGradient id="linear-gradient-24" x1="431.24" y1="514.33" x2="655.24" y2="515.33" xlink:href="#linear-gradient"/><linearGradient id="linear-gradient-25" x1="431.24" y1="514.27" x2="655.24" y2="515.27" xlink:href="#linear-gradient"/><linearGradient id="linear-gradient-26" x1="431.24" y1="514.21" x2="655.24" y2="515.21" xlink:href="#linear-gradient"/><linearGradient id="linear-gradient-27" x1="431.24" y1="514.15" x2="655.24" y2="515.15" xlink:href="#linear-gradient"/><linearGradient id="linear-gradient-28" x1="431.24" y1="514.09" x2="655.24" y2="515.09" xlink:href="#linear-gradient"/><linearGradient id="linear-gradient-29" x1="431.24" y1="514.04" x2="655.24" y2="515.04" xlink:href="#linear-gradient"/><linearGradient id="linear-gradient-30" x1="431.21" y1="513.98" x2="655.25" y2="514.98" xlink:href="#linear-gradient"/><linearGradient id="linear-gradient-31" x1="431.24" y1="513.92" x2="655.24" y2="514.92" xlink:href="#linear-gradient"/><linearGradient id="linear-gradient-32" x1="431.24" y1="513.86" x2="655.24" y2="514.86" xlink:href="#linear-gradient"/><linearGradient id="linear-gradient-33" x1="431.24" y1="513.8" x2="655.24" y2="514.8" xlink:href="#linear-gradient"/><linearGradient id="linear-gradient-34" x1="431.24" y1="513.75" x2="655.24" y2="514.75" xlink:href="#linear-gradient"/><linearGradient id="linear-gradient-35" x1="431.18" y1="528.17" x2="655.18" y2="529.17" xlink:href="#linear-gradient"/><linearGradient id="linear-gradient-36" x1="431.18" y1="528.12" x2="655.18" y2="529.12" xlink:href="#linear-gradient"/><linearGradient id="linear-gradient-37" x1="431.18" y1="528.06" x2="655.18" y2="529.06" xlink:href="#linear-gradient"/><linearGradient id="linear-gradient-38" x1="431.18" y1="528" x2="655.18" y2="529" xlink:href="#linear-gradient"/><linearGradient id="linear-gradient-39" x1="431.18" y1="527.94" x2="655.18" y2="528.94" xlink:href="#linear-gradient"/><linearGradient id="linear-gradient-40" x1="431.18" y1="527.88" x2="655.18" y2="528.88" xlink:href="#linear-gradient"/><linearGradient id="linear-gradient-41" x1="431.18" y1="527.82" x2="655.18" y2="528.82" xlink:href="#linear-gradient"/><linearGradient id="linear-gradient-42" x1="431.18" y1="527.77" x2="655.18" y2="528.77" xlink:href="#linear-gradient"/><linearGradient id="linear-gradient-43" x1="431.18" y1="527.71" x2="655.18" y2="528.71" xlink:href="#linear-gradient"/><linearGradient id="linear-gradient-44" x1="431.18" y1="527.65" x2="655.18" y2="528.65" xlink:href="#linear-gradient"/><linearGradient id="linear-gradient-45" x1="431.18" y1="527.59" x2="655.18" y2="528.59" xlink:href="#linear-gradient"/><linearGradient id="linear-gradient-46" x1="431.15" y1="527.53" x2="655.19" y2="528.53" xlink:href="#linear-gradient"/><linearGradient id="linear-gradient-47" x1="431.18" y1="527.48" x2="655.18" y2="528.48" xlink:href="#linear-gradient"/><linearGradient id="linear-gradient-48" x1="431.22" y1="527.42" x2="655.18" y2="528.42" xlink:href="#linear-gradient"/><linearGradient id="linear-gradient-49" x1="431.18" y1="527.36" x2="655.18" y2="528.36" xlink:href="#linear-gradient"/><linearGradient id="linear-gradient-50" x1="431.18" y1="527.3" x2="655.18" y2="528.3" xlink:href="#linear-gradient"/><linearGradient id="linear-gradient-51" x1="431.18" y1="527.24" x2="655.18" y2="528.24" xlink:href="#linear-gradient"/></defs><g class="cls-1"><g id="Layer_1" data-name="Layer 1"><path class="cls-2" d="M346.17,137.93a9.37,9.37,0,0,1-9.33,9.4H290.13a9.37,9.37,0,0,1-9.33-9.4h0a9.36,9.36,0,0,1,9.33-9.39h46.71a9.36,9.36,0,0,1,9.33,9.39Z"/><path class="cls-3" d="M340.64,137.93a9.37,9.37,0,0,1-9.33,9.4H284.6a9.37,9.37,0,0,1-9.33-9.4h0a9.36,9.36,0,0,1,9.33-9.39h46.71a9.36,9.36,0,0,1,9.33,9.39Z"/><path class="cls-3" d="M238.26,581.84a44.43,44.43,0,0,1-31.63-13.2,45.06,45.06,0,0,1-13.1-31.86V183.33a45.06,45.06,0,0,1,13.1-31.86,44.43,44.43,0,0,1,31.63-13.2H715.62a44.43,44.43,0,0,1,31.63,13.2,45.11,45.11,0,0,1,13.1,31.86V536.78a45.11,45.11,0,0,1-13.1,31.86,44.43,44.43,0,0,1-31.63,13.2Z"/><path class="cls-4" d="M227.29,581.84a44.45,44.45,0,0,1-31.64-13.2,45.11,45.11,0,0,1-13.1-31.86V183.33a45.11,45.11,0,0,1,13.1-31.86,44.45,44.45,0,0,1,31.64-13.2H704.64a44.41,44.41,0,0,1,31.63,13.2,45.07,45.07,0,0,1,13.11,31.86V536.78a45.07,45.07,0,0,1-13.11,31.86,44.41,44.41,0,0,1-31.63,13.2Z"/><rect class="cls-5" x="216.1" y="172.07" width="499.73" height="375.97"/><g class="cls-6"><path class="cls-7" d="M237.37,368.28a2.75,2.75,0,1,1-2.75-2.76A2.75,2.75,0,0,1,237.37,368.28Z"/><path class="cls-7" d="M250.4,368.28a2.75,2.75,0,1,1-2.74-2.76A2.75,2.75,0,0,1,250.4,368.28Z"/><path class="cls-7" d="M263.43,368.28a2.74,2.74,0,1,1-2.74-2.76A2.74,2.74,0,0,1,263.43,368.28Z"/><path class="cls-7" d="M276.47,368.28a2.75,2.75,0,1,1-2.75-2.76A2.75,2.75,0,0,1,276.47,368.28Z"/><path class="cls-7" d="M289.5,368.28a2.75,2.75,0,1,1-2.74-2.76A2.75,2.75,0,0,1,289.5,368.28Z"/><path class="cls-7" d="M302.53,368.28a2.74,2.74,0,1,1-2.74-2.76A2.74,2.74,0,0,1,302.53,368.28Z"/><path class="cls-7" d="M315.57,368.28a2.75,2.75,0,1,1-2.75-2.76A2.75,2.75,0,0,1,315.57,368.28Z"/><path class="cls-7" d="M328.6,368.28a2.75,2.75,0,1,1-2.74-2.76A2.75,2.75,0,0,1,328.6,368.28Z"/><path class="cls-7" d="M341.64,368.28a2.75,2.75,0,1,1-2.75-2.76A2.75,2.75,0,0,1,341.64,368.28Z"/><path class="cls-7" d="M354.67,368.28a2.75,2.75,0,1,1-2.74-2.76A2.75,2.75,0,0,1,354.67,368.28Z"/><path class="cls-7" d="M367.7,368.28a2.75,2.75,0,1,1-2.74-2.76A2.75,2.75,0,0,1,367.7,368.28Z"/><path class="cls-7" d="M380.74,368.28a2.75,2.75,0,1,1-2.75-2.76A2.75,2.75,0,0,1,380.74,368.28Z"/><path class="cls-7" d="M393.77,368.28a2.75,2.75,0,1,1-2.74-2.76A2.75,2.75,0,0,1,393.77,368.28Z"/><path class="cls-7" d="M406.8,368.28a2.75,2.75,0,1,1-2.74-2.76A2.75,2.75,0,0,1,406.8,368.28Z"/><path class="cls-7" d="M419.84,368.28a2.75,2.75,0,1,1-2.75-2.76A2.75,2.75,0,0,1,419.84,368.28Z"/><path class="cls-7" d="M432.87,368.28a2.75,2.75,0,1,1-2.74-2.76A2.75,2.75,0,0,1,432.87,368.28Z"/><path class="cls-7" d="M445.9,368.28a2.75,2.75,0,1,1-2.74-2.76A2.75,2.75,0,0,1,445.9,368.28Z"/></g><g class="cls-6"><path class="cls-7" d="M224.27,354.28a2.75,2.75,0,1,1-2.75-2.77A2.76,2.76,0,0,1,224.27,354.28Z"/><path class="cls-7" d="M237.3,354.28a2.75,2.75,0,1,1-2.74-2.77A2.75,2.75,0,0,1,237.3,354.28Z"/><path class="cls-7" d="M250.34,354.28a2.75,2.75,0,1,1-2.75-2.77A2.76,2.76,0,0,1,250.34,354.28Z"/><path class="cls-7" d="M263.37,354.28a2.75,2.75,0,1,1-2.74-2.77A2.75,2.75,0,0,1,263.37,354.28Z"/><path class="cls-7" d="M276.4,354.28a2.75,2.75,0,1,1-2.74-2.77A2.75,2.75,0,0,1,276.4,354.28Z"/><path class="cls-7" d="M289.44,354.28a2.75,2.75,0,1,1-2.75-2.77A2.76,2.76,0,0,1,289.44,354.28Z"/><path class="cls-7" d="M302.47,354.28a2.75,2.75,0,1,1-2.74-2.77A2.75,2.75,0,0,1,302.47,354.28Z"/><path class="cls-7" d="M315.5,354.28a2.75,2.75,0,1,1-2.74-2.77A2.75,2.75,0,0,1,315.5,354.28Z"/><path class="cls-7" d="M328.54,354.28a2.75,2.75,0,1,1-2.75-2.77A2.76,2.76,0,0,1,328.54,354.28Z"/><path class="cls-7" d="M341.57,354.28a2.75,2.75,0,1,1-2.74-2.77A2.75,2.75,0,0,1,341.57,354.28Z"/><path class="cls-7" d="M354.6,354.28a2.75,2.75,0,1,1-2.74-2.77A2.75,2.75,0,0,1,354.6,354.28Z"/><path class="cls-7" d="M367.64,354.28a2.75,2.75,0,1,1-2.75-2.77A2.76,2.76,0,0,1,367.64,354.28Z"/><path class="cls-7" d="M380.67,354.28a2.75,2.75,0,1,1-2.74-2.77A2.75,2.75,0,0,1,380.67,354.28Z"/><path class="cls-7" d="M393.7,354.28a2.75,2.75,0,1,1-2.74-2.77A2.75,2.75,0,0,1,393.7,354.28Z"/><path class="cls-7" d="M406.74,354.28a2.75,2.75,0,1,1-2.75-2.77A2.76,2.76,0,0,1,406.74,354.28Z"/><path class="cls-7" d="M419.77,354.28a2.75,2.75,0,1,1-2.74-2.77A2.75,2.75,0,0,1,419.77,354.28Z"/><path class="cls-7" d="M432.8,354.28a2.74,2.74,0,1,1-2.74-2.77A2.75,2.75,0,0,1,432.8,354.28Z"/></g><path class="cls-8" d="M314.33,504.84V526.4a2.32,2.32,0,0,1-4.39,1.07,2.3,2.3,0,0,1-2.06,1.28,2.33,2.33,0,0,1-2.32-2.35,2.32,2.32,0,0,1-4.4,1.05,2.32,2.32,0,0,1-4.4-1.05V504.84a2.32,2.32,0,0,1,4.4-1,2.32,2.32,0,0,1,4.4,1,2.33,2.33,0,0,1,2.32-2.35,2.29,2.29,0,0,1,2.06,1.28,2.32,2.32,0,0,1,4.39,1.07Z"/><path class="cls-9" d="M290.4,532.57h0a12.29,12.29,0,0,1,12.24-12.33h1.75a12.29,12.29,0,0,1,12.24,12.33h0"/><polygon class="cls-10" points="326.65 603.32 326.65 532.58 276.33 532.58 274.43 559.29 276.34 559.29 276.34 603.32 326.65 603.32"/><path class="cls-11" d="M285.13,594.47a8.82,8.82,0,0,1-8.79,8.85h0a8.82,8.82,0,0,1-8.79-8.85V541.42a8.83,8.83,0,0,1,8.79-8.85h0a8.83,8.83,0,0,1,8.79,8.85Z"/><path class="cls-8" d="M314.33,520.39v6a2.32,2.32,0,0,1-4.39,1.07,2.3,2.3,0,0,1-2.06,1.28,2.33,2.33,0,0,1-2.32-2.35,2.32,2.32,0,0,1-4.4,1.05,2.31,2.31,0,0,1-3.92.37v-6a2.33,2.33,0,0,1,2.32-2.34,2.31,2.31,0,0,1,2.07,1.3,2.32,2.32,0,0,1,4.4,1,2.32,2.32,0,0,1,4.39-1.07,2.3,2.3,0,0,1,3.91-.33Z"/><rect class="cls-12" x="305.69" y="532.58" width="7.97" height="70.75"/><g class="cls-6"><path class="cls-7" d="M254.81,381.86a2.74,2.74,0,1,1-2.74-2.77A2.75,2.75,0,0,1,254.81,381.86Z"/><path class="cls-7" d="M267.85,381.86a2.75,2.75,0,1,1-2.75-2.77A2.76,2.76,0,0,1,267.85,381.86Z"/><path class="cls-7" d="M280.88,381.86a2.75,2.75,0,1,1-2.74-2.77A2.75,2.75,0,0,1,280.88,381.86Z"/><path class="cls-7" d="M293.91,381.86a2.74,2.74,0,1,1-2.74-2.77A2.75,2.75,0,0,1,293.91,381.86Z"/><path class="cls-7" d="M307,381.86a2.75,2.75,0,1,1-2.75-2.77A2.76,2.76,0,0,1,307,381.86Z"/><path class="cls-7" d="M320,381.86a2.75,2.75,0,1,1-2.74-2.77A2.75,2.75,0,0,1,320,381.86Z"/><path class="cls-7" d="M333,381.86a2.74,2.74,0,1,1-2.74-2.77A2.75,2.75,0,0,1,333,381.86Z"/><path class="cls-7" d="M346.05,381.86a2.75,2.75,0,1,1-2.75-2.77A2.76,2.76,0,0,1,346.05,381.86Z"/><path class="cls-7" d="M359.08,381.86a2.75,2.75,0,1,1-2.74-2.77A2.75,2.75,0,0,1,359.08,381.86Z"/><path class="cls-7" d="M372.11,381.86a2.74,2.74,0,1,1-2.74-2.77A2.75,2.75,0,0,1,372.11,381.86Z"/><path class="cls-7" d="M385.15,381.86a2.75,2.75,0,1,1-2.75-2.77A2.76,2.76,0,0,1,385.15,381.86Z"/><path class="cls-7" d="M398.18,381.86a2.75,2.75,0,1,1-2.74-2.77A2.75,2.75,0,0,1,398.18,381.86Z"/><path class="cls-7" d="M411.21,381.86a2.74,2.74,0,1,1-2.74-2.77A2.75,2.75,0,0,1,411.21,381.86Z"/><path class="cls-7" d="M424.25,381.86a2.75,2.75,0,1,1-2.75-2.77A2.76,2.76,0,0,1,424.25,381.86Z"/><path class="cls-7" d="M437.28,381.86a2.75,2.75,0,1,1-2.74-2.77A2.75,2.75,0,0,1,437.28,381.86Z"/><path class="cls-7" d="M450.31,381.86a2.74,2.74,0,1,1-2.74-2.77A2.75,2.75,0,0,1,450.31,381.86Z"/><path class="cls-7" d="M463.35,381.86a2.75,2.75,0,1,1-2.75-2.77A2.76,2.76,0,0,1,463.35,381.86Z"/></g><path class="cls-10" d="M320.3,504.84V356.13c0-7.61-5.76-13.77-12.87-13.77s-12.87,6.16-12.87,13.77V504.84Z"/><path class="cls-13" d="M305.76,519.85A2.06,2.06,0,0,0,308,521.7h0a2.08,2.08,0,0,0,1.83-2.28l-.74-7.35a2.06,2.06,0,0,0-2.26-1.85h0a2.07,2.07,0,0,0-1.84,2.27Z"/><path class="cls-14" d="M372.67,260.55v39.64a27.72,27.72,0,0,1-17.59,25.87,27.39,27.39,0,0,1-29.45-6.25,27.75,27.75,0,0,1-7.36-13.44,27.42,27.42,0,0,1-.7-6.18V260.55A27.77,27.77,0,0,1,327.75,239h0a37.18,37.18,0,0,1,13.6-2.6c13,0,23.78,5.83,29.89,15.38A27.6,27.6,0,0,1,372.67,260.55Z"/><path class="cls-13" d="M368.58,260.55v39.64A27.72,27.72,0,0,1,351,326.06a27.32,27.32,0,0,1-10,1.88c-7.6,0-12.47-6.26-17.46-11.27-3.6-3.64-8.23-5.12-9.39-10.3a27.42,27.42,0,0,1-.7-6.18V260.55A27.77,27.77,0,0,1,323.66,239h0a37.18,37.18,0,0,1,13.6-2.6c13,0,23.78,5.83,29.89,15.38A27.6,27.6,0,0,1,368.58,260.55Z"/><path class="cls-8" d="M348.6,336c0,4.35-5.84,7.88-13,7.88h0c-7.2,0-13-3.53-13-7.88V311.58c0-4.35,5.83-7.88,13-7.88h0c7.2,0,13,3.53,13,7.88Z"/><polygon class="cls-15" points="324.81 668.88 306.58 668.88 306.58 680.54 324.87 679.02 324.81 668.88"/><rect class="cls-15" x="346.42" y="667.35" width="17.87" height="11.67"/><path class="cls-14" d="M372.86,480.85V675.49H346.71V524.33c0-3.75-5-6.79-8.73-6.79a6.59,6.59,0,0,0-3.22.83,6.83,6.83,0,0,0-3.51,6V675.49H306.58V480.85Z"/><path class="cls-16" d="M366.43,480.85V675.49H344.72V524.33a6.77,6.77,0,0,0-6.74-6.79c-1.17,0,.94-.53,0,0-1-.53-5.27,0-6.43,0a6.64,6.64,0,0,0-4.76,2,6.81,6.81,0,0,0-2,4.8V675.49H304.46V480.85Z"/><path class="cls-8" d="M363.14,251.78c-6.11-9.55-16.86-15.38-29.89-15.38a37.18,37.18,0,0,0-13.6,2.6h0a27.77,27.77,0,0,0-10.18,21.54v33.78H322.4v29.39A27.35,27.35,0,0,0,347,326.06a27.72,27.72,0,0,0,17.59-25.87V260.55A27.6,27.6,0,0,0,363.14,251.78Z"/><path class="cls-16" d="M378.23,351,374.5,487c0,.3.51,14.69.5,15l-70.56-.45c0-.29,0-.59,0-.89l-1.36-124.72-.55.13s-7-15-3.93-28.4c3-5.82,13.87-8.78,22.59-10.26A114.66,114.66,0,0,1,333,336l-.07,1.5a37.51,37.51,0,0,1,21.32,1.73,58.94,58.94,0,0,1,9,2.32C368.75,343.47,375.31,345.81,378.23,351Z"/><path class="cls-17" d="M307.79,679h17.08c.59,2.91,9.2,4.69,12.45,5.1L357,687.76a8.89,8.89,0,0,1,.79,3.65c0,4.83-5,5.1-9.8,5.1H325l-4.32-4.82v4.82H307.79c-4.79,0-5.45.34-5.45-4.49S303,679,307.79,679Z"/><rect x="301.64" y="691.69" width="19.01" height="4.82"/><rect x="324.87" y="693.48" width="32.39" height="3.03"/><polygon points="324.87 693.48 320.65 691.69 324.87 696.51 324.87 693.48"/><path class="cls-18" d="M347.22,679H364.3c.59,2.91,9.2,4.69,12.44,5.1l19.66,3.64a8.74,8.74,0,0,1,.8,3.65c0,4.83-5,5.1-9.81,5.1h-23l-4.33-4.82v4.82H347.22c-4.79,0-5.45.34-5.45-4.49S342.43,679,347.22,679Z"/><path class="cls-16" d="M347.22,679h15c-.81,7.81,34.5,10.44,34.5,10.44.5,1.11.51.65.51,1.95,0,4.83-5,5.1-9.81,5.1h-23l-4.33-4.82v4.82H347.22c-4.79,0-5.45.34-5.45-4.49S342.43,679,347.22,679Z"/><rect x="341.06" y="691.69" width="19.01" height="4.82"/><rect x="364.3" y="693.48" width="32.39" height="3.03"/><polygon points="364.3 693.48 360.07 691.69 364.3 696.51 364.3 693.48"/><path class="cls-19" d="M339,232.13c-18.58,0-33.07,10.87-35.94,29.37-1.62,10.45-3.42,37.83,8.25,51.21,3.7,4.24,9.19,6,14.4,6h14.5A12.82,12.82,0,0,0,353,305.86V285.18h11.51V260.55l8.78-2L371,257.33C371,238.61,357.6,232.13,339,232.13Z"/><path class="cls-20" d="M601.23,548V488.23a6.33,6.33,0,0,1,2.27-4.8,8.3,8.3,0,0,1,5.48-2c4.3,0,7.77,3,7.77,6.79V548h32.44V444.75H570.36V548Z"/><path class="cls-14" d="M376.71,257.65l-.09.86-5.4.91,0-.22c0-18.72-19.11-25.51-37.69-25.51a42.3,42.3,0,0,0-8.6.86A40.4,40.4,0,0,1,339,232.13C357.6,232.13,376.71,238.93,376.71,257.65Z"/><path class="cls-21" d="M678.79,548v-47.2a6,6,0,0,1,1.76-4.28,6,6,0,0,1,4.23-1.77,6,6,0,0,1,6,6V548h25.05V462.15H655V548Z"/><path class="cls-21" d="M488.74,358.05a11.93,11.93,0,0,1,5.5-10.06l34.27-22,35.87,21.86a12.51,12.51,0,0,1,6,10.69V472H488.74Z"/><path class="cls-21" d="M634.18,354.18a12,12,0,0,1,5.5-10.07l34.27-22L709.83,344a12.57,12.57,0,0,1,6,10.68V468.16H634.18Z"/><path class="cls-22" d="M655,340.3V468.16h-93V339.7c0-2.33-.94-17.87,6.28-22.08,4.42-3.18,10.67-5.56,17.82-7.12a99.88,99.88,0,0,1,15.16-2.05c2.83-.18,5.69-.25,8.54-.21a109.31,109.31,0,0,1,15.36,1.22c9.29,1.42,17.56,4.09,23,8C655,322.72,655,337.79,655,340.3Z"/><polygon class="cls-23" points="591.5 319.5 609 387 624 319.5 591.5 319.5"/><path class="cls-8" d="M362.38,284.35a4.69,4.69,0,0,1-4.67,4.7h0a4.69,4.69,0,0,1-4.67-4.7v-2.69a4.68,4.68,0,0,1,4.67-4.7h0a4.68,4.68,0,0,1,4.67,4.7Z"/><path class="cls-16" d="M351.94,338.48a139,139,0,0,1-36.07,0l3.13-7.94c8.69,1.84,20.91,1.52,29.6,0Z"/><path class="cls-21" d="M523.9,548V505.22a6,6,0,0,1,1.76-4.27,5.91,5.91,0,0,1,4.23-1.77,6,6,0,0,1,6,6V548h25.05V466.53H500.07V548Z"/><path class="cls-24" d="M556.65,304.36a6.65,6.65,0,1,1-6.64-6.69A6.68,6.68,0,0,1,556.65,304.36Z"/><path class="cls-24" d="M515.16,304.36a6.65,6.65,0,1,1-6.64-6.69A6.67,6.67,0,0,1,515.16,304.36Z"/><path class="cls-24" d="M509.43,265.44l-.34.31a10.09,10.09,0,0,0-2.79,5.38V321.7a16.68,16.68,0,0,0,1.79,7.55A15.39,15.39,0,0,0,513,335l7.68,5.38a15.89,15.89,0,0,0,18.36,0l7.85-5.49a15.19,15.19,0,0,0,4.8-5.59,16,16,0,0,0,1.58-5V266.51a3.92,3.92,0,0,0-.17-1.07Z"/><path class="cls-21" d="M554.3,266.3c-5.5-5.56-10.18-4.61-11.7-4.08h0c-2.83-3-19.81-7.69-30.82-1-23.51,14.25-5.63,39.53-5.63,39.53V287a24.6,24.6,0,0,1,.33-4,36.21,36.21,0,0,0,14.93,3.08c12.91,0,23.7-6.18,26.34-14.43,2.24,2.67,5.71,6.46,5.56,28.37C561,293.25,561,273.08,554.3,266.3Z"/><path class="cls-24" d="M707.91,305.47a6.65,6.65,0,1,1-6.65-6.69A6.67,6.67,0,0,1,707.91,305.47Z"/><path class="cls-24" d="M666.42,305.47a6.65,6.65,0,1,1-6.64-6.69A6.67,6.67,0,0,1,666.42,305.47Z"/><path class="cls-24" d="M660.68,266.55l-.33.3a10.13,10.13,0,0,0-2.79,5.38V322.8a16.72,16.72,0,0,0,1.79,7.56,15.45,15.45,0,0,0,4.93,5.73l7.68,5.37a15.85,15.85,0,0,0,18.36,0l7.85-5.49a15.06,15.06,0,0,0,4.81-5.59,16.47,16.47,0,0,0,1.58-5V267.61a3.85,3.85,0,0,0-.17-1.06Z"/><path class="cls-21" d="M705.55,267.4c-5.49-5.56-10.17-4.6-11.7-4.07h0c-2.83-3-19.81-7.7-30.82-1-23.52,14.25-5.63,39.52-5.63,39.52V288.09a23.52,23.52,0,0,1,.33-4,36.33,36.33,0,0,0,14.93,3.08c12.91,0,23.69-6.18,26.34-14.43,2.23,2.67,5.71,6.45,5.56,28.36C712.27,294.36,712.29,274.19,705.55,267.4Z"/><path class="cls-10" d="M346.71,450a5,5,0,0,1-5,5H316.24a5,5,0,0,1-5-5h0a5,5,0,0,1,5-5h25.47a5,5,0,0,1,5,5Z"/><path class="cls-21" d="M501.7,422a3.14,3.14,0,0,0,2.25-1,3.09,3.09,0,0,0,.75-1.26l9.71-.14-.25-17.84-9.6.14a3.47,3.47,0,0,0-.31-1.06,3.4,3.4,0,0,0-.93-1.15l-7.1-5.69a2.37,2.37,0,0,0-1.4-.44h-.3l-7.19.11a2.38,2.38,0,0,0,.07,4.76l6.36-.09,1.54,2.48-4.9.07h0l-13.94.2a2.38,2.38,0,0,0,.06,4.76l14-.2v.75l-15.08.22a2.38,2.38,0,0,0,.07,4.76l15.08-.21v.71l-13.12.19a2.39,2.39,0,0,0,.07,4.77l13.11-.19v.72l-10.95.16a2.38,2.38,0,0,0,.07,4.76l10.95-.15h0Z"/><rect class="cls-21" x="508.32" y="401.78" width="5.96" height="17.84" transform="translate(-5.68 7.18) rotate(-0.8)"/><path class="cls-22" d="M556.83,339.45V366A33.81,33.81,0,0,1,544,392.57c-.19.15-.38.3-.58.44l-.65.48c-.22.16-.44.32-.67.46l-.53.36c-.3.2-.61.39-.92.58l-.86.5-.88.49-.44.23-.56.27c-.33.17-.66.32-1,.47l-.9.39-1.11.43-.63.23q-.47.17-.93.3l-.58.18-1,.28-1.29.3c-.48.11-1,.2-1.45.28s-.88.15-1.32.2h0l-1.2.13-.46,0h0l-1.1.07h-.06l-1.41,0h-9.82v21h9.82c.63,0,1.26,0,1.89,0h.22c.64,0,1.27-.05,1.89-.1s1.32-.11,2-.18,1.19-.14,1.78-.23l.26,0c.54-.08,1.07-.17,1.6-.27l.54-.1c.53-.1,1.07-.21,1.6-.33s1.21-.28,1.81-.44l.21-.06c.55-.14,1.1-.29,1.64-.46,1.32-.39,2.62-.83,3.91-1.33.52-.19,1-.4,1.53-.62l.28-.11c.5-.21,1-.43,1.49-.67s1.15-.54,1.71-.83,1-.53,1.55-.81l.12-.07c.51-.28,1-.57,1.53-.88l.24-.14c.5-.29,1-.6,1.47-.92a53.23,53.23,0,0,0,7.21-5.56A54.71,54.71,0,0,0,577.68,366l1-37.67C580.24,307.32,555.26,318.45,556.83,339.45Z"/><path class="cls-25" d="M561.73,415.82a19.64,19.64,0,0,1-31.88.54"/><path class="cls-25" d="M529.38,393.54a19.65,19.65,0,0,1,33.12,1.06"/><path class="cls-26" d="M608.3,326.24c-6.7,0-12.16-4.17-12.16-9.28s5.46-9.28,12.16-9.28,12.16,4.17,12.16,9.28S615,326.24,608.3,326.24Z"/><path class="cls-27" d="M624.85,309.23a101.07,101.07,0,0,0-13.23-1c3.82,1.06,6.78,3.94,7.09,7.49.43,4.86-4.23,9.14-10.43,9.14s-10.87-4.28-10.45-9.14c.29-3.38,3-6.15,6.52-7.32a93,93,0,0,0-13.18,1.68c-.94,1.7,2.18,22.7,11.25,25.44.82-1.29,1.94-2.87,3-4.27,1.55-2.15,2.91-4,2.91-4l2.72,4,3,4.32C623.16,332.93,626.05,311.15,624.85,309.23Z"/><path class="cls-26" d="M620.46,317c0,5.11-5.45,9.28-12.16,9.28s-12.16-4.17-12.16-9.28,5.46-9.28,12.16-9.28S620.46,311.85,620.46,317Z"/><path class="cls-28" d="M501.7,422a3.14,3.14,0,0,0,2.25-1,3.09,3.09,0,0,0,.75-1.26l9.71-.14-.25-17.84-9.6.14a3.47,3.47,0,0,0-.31-1.06,3.4,3.4,0,0,0-.93-1.15l-7.1-5.69a2.37,2.37,0,0,0-1.4-.44h-.3l-7.19.11a2.38,2.38,0,0,0,.07,4.76l6.36-.09,1.54,2.48-4.9.07h0l-13.94.2a2.38,2.38,0,0,0,.06,4.76l14-.2v.75l-15.08.22a2.38,2.38,0,0,0,.07,4.76l15.08-.21v.71l-13.12.19a2.39,2.39,0,0,0,.07,4.77l13.11-.19v.72l-10.95.16a2.38,2.38,0,0,0,.07,4.76l10.95-.15h0Z"/><rect class="cls-29" x="508.32" y="401.78" width="5.96" height="17.84" transform="translate(-5.68 7.18) rotate(-0.8)"/><path class="cls-30" d="M552.59,412.09a53.69,53.69,0,0,1-29.24,8.63h-9.82v-21h9.82a33.19,33.19,0,0,0,20.6-7.15C553.53,389.4,561.38,407.13,552.59,412.09Z"/><rect class="cls-14" x="372" y="425.79" width="6.19" height="76.2"/><path class="cls-31" d="M429.66,500.71a2.75,2.75,0,1,1-2.74-2.76A2.76,2.76,0,0,1,429.66,500.71Z"/><path class="cls-32" d="M442.69,500.71A2.74,2.74,0,1,1,440,498,2.75,2.75,0,0,1,442.69,500.71Z"/><path class="cls-33" d="M455.73,500.71A2.75,2.75,0,1,1,453,498,2.76,2.76,0,0,1,455.73,500.71Z"/><path class="cls-34" d="M468.76,500.71A2.75,2.75,0,1,1,466,498,2.76,2.76,0,0,1,468.76,500.71Z"/><path class="cls-35" d="M481.8,500.71a2.75,2.75,0,1,1-2.75-2.76A2.76,2.76,0,0,1,481.8,500.71Z"/><path class="cls-36" d="M494.83,500.71a2.75,2.75,0,1,1-2.75-2.76A2.76,2.76,0,0,1,494.83,500.71Z"/><path class="cls-37" d="M507.86,500.71a2.75,2.75,0,1,1-2.74-2.76A2.76,2.76,0,0,1,507.86,500.71Z"/><path class="cls-38" d="M520.9,500.71a2.75,2.75,0,1,1-2.75-2.76A2.76,2.76,0,0,1,520.9,500.71Z"/><path class="cls-39" d="M533.93,500.71a2.75,2.75,0,1,1-2.74-2.76A2.76,2.76,0,0,1,533.93,500.71Z"/><path class="cls-40" d="M547,500.71a2.75,2.75,0,1,1-2.74-2.76A2.76,2.76,0,0,1,547,500.71Z"/><path class="cls-41" d="M560,500.71a2.75,2.75,0,1,1-2.75-2.76A2.76,2.76,0,0,1,560,500.71Z"/><path class="cls-42" d="M573,500.71a2.75,2.75,0,1,1-2.75-2.76A2.76,2.76,0,0,1,573,500.71Z"/><path class="cls-43" d="M586.06,500.71a2.75,2.75,0,1,1-2.74-2.76A2.76,2.76,0,0,1,586.06,500.71Z"/><path class="cls-44" d="M599.1,500.71a2.75,2.75,0,1,1-2.75-2.76A2.76,2.76,0,0,1,599.1,500.71Z"/><path class="cls-45" d="M612.13,500.71a2.75,2.75,0,1,1-2.74-2.76A2.76,2.76,0,0,1,612.13,500.71Z"/><path class="cls-46" d="M625.16,500.71a2.74,2.74,0,1,1-2.74-2.76A2.75,2.75,0,0,1,625.16,500.71Z"/><path class="cls-47" d="M638.2,500.71a2.75,2.75,0,1,1-2.75-2.76A2.76,2.76,0,0,1,638.2,500.71Z"/><path class="cls-48" d="M442.76,514.72A2.75,2.75,0,1,1,440,512,2.75,2.75,0,0,1,442.76,514.72Z"/><path class="cls-49" d="M455.79,514.72a2.74,2.74,0,1,1-2.74-2.77A2.75,2.75,0,0,1,455.79,514.72Z"/><path class="cls-50" d="M468.83,514.72a2.75,2.75,0,1,1-2.75-2.77A2.76,2.76,0,0,1,468.83,514.72Z"/><path class="cls-51" d="M481.86,514.72a2.75,2.75,0,1,1-2.74-2.77A2.75,2.75,0,0,1,481.86,514.72Z"/><path class="cls-52" d="M494.89,514.72a2.74,2.74,0,1,1-2.74-2.77A2.75,2.75,0,0,1,494.89,514.72Z"/><path class="cls-53" d="M507.93,514.72a2.75,2.75,0,1,1-2.75-2.77A2.76,2.76,0,0,1,507.93,514.72Z"/><path class="cls-54" d="M521,514.72a2.75,2.75,0,1,1-2.74-2.77A2.75,2.75,0,0,1,521,514.72Z"/><path class="cls-55" d="M534,514.72a2.74,2.74,0,1,1-2.74-2.77A2.75,2.75,0,0,1,534,514.72Z"/><path class="cls-56" d="M547,514.72a2.75,2.75,0,1,1-2.75-2.77A2.76,2.76,0,0,1,547,514.72Z"/><path class="cls-57" d="M560.06,514.72a2.75,2.75,0,1,1-2.74-2.77A2.75,2.75,0,0,1,560.06,514.72Z"/><path class="cls-58" d="M573.1,514.72a2.75,2.75,0,1,1-2.75-2.77A2.76,2.76,0,0,1,573.1,514.72Z"/><path class="cls-59" d="M586.13,514.72a2.75,2.75,0,1,1-2.75-2.77A2.76,2.76,0,0,1,586.13,514.72Z"/><path class="cls-60" d="M599.16,514.72a2.75,2.75,0,1,1-2.74-2.77A2.75,2.75,0,0,1,599.16,514.72Z"/><path class="cls-61" d="M612.19,514.72a2.74,2.74,0,1,1-2.74-2.77A2.75,2.75,0,0,1,612.19,514.72Z"/><path class="cls-62" d="M625.23,514.72a2.75,2.75,0,1,1-2.75-2.77A2.76,2.76,0,0,1,625.23,514.72Z"/><path class="cls-63" d="M638.26,514.72a2.75,2.75,0,1,1-2.74-2.77A2.75,2.75,0,0,1,638.26,514.72Z"/><path class="cls-64" d="M651.3,514.72a2.75,2.75,0,1,1-2.75-2.77A2.76,2.76,0,0,1,651.3,514.72Z"/><path class="cls-65" d="M460.21,528.29a2.75,2.75,0,1,1-2.75-2.76A2.75,2.75,0,0,1,460.21,528.29Z"/><path class="cls-66" d="M473.24,528.29a2.75,2.75,0,1,1-2.74-2.76A2.75,2.75,0,0,1,473.24,528.29Z"/><path class="cls-67" d="M486.27,528.29a2.74,2.74,0,1,1-2.74-2.76A2.74,2.74,0,0,1,486.27,528.29Z"/><path class="cls-68" d="M499.31,528.29a2.75,2.75,0,1,1-2.75-2.76A2.75,2.75,0,0,1,499.31,528.29Z"/><path class="cls-69" d="M512.34,528.29a2.75,2.75,0,1,1-2.74-2.76A2.75,2.75,0,0,1,512.34,528.29Z"/><path class="cls-70" d="M525.37,528.29a2.74,2.74,0,1,1-2.74-2.76A2.74,2.74,0,0,1,525.37,528.29Z"/><path class="cls-71" d="M538.41,528.29a2.75,2.75,0,1,1-2.75-2.76A2.75,2.75,0,0,1,538.41,528.29Z"/><path class="cls-72" d="M551.44,528.29a2.75,2.75,0,1,1-2.74-2.76A2.75,2.75,0,0,1,551.44,528.29Z"/><path class="cls-73" d="M564.47,528.29a2.74,2.74,0,1,1-2.74-2.76A2.74,2.74,0,0,1,564.47,528.29Z"/><path class="cls-74" d="M577.51,528.29a2.75,2.75,0,1,1-2.75-2.76A2.75,2.75,0,0,1,577.51,528.29Z"/><path class="cls-75" d="M590.54,528.29a2.75,2.75,0,1,1-2.74-2.76A2.75,2.75,0,0,1,590.54,528.29Z"/><path class="cls-76" d="M603.57,528.29a2.74,2.74,0,1,1-2.74-2.76A2.74,2.74,0,0,1,603.57,528.29Z"/><path class="cls-77" d="M616.61,528.29a2.75,2.75,0,1,1-2.75-2.76A2.75,2.75,0,0,1,616.61,528.29Z"/><path class="cls-78" d="M629.64,528.29a2.75,2.75,0,1,1-2.74-2.76A2.75,2.75,0,0,1,629.64,528.29Z"/><path class="cls-79" d="M642.68,528.29a2.75,2.75,0,1,1-2.75-2.76A2.75,2.75,0,0,1,642.68,528.29Z"/><path class="cls-80" d="M655.71,528.29a2.75,2.75,0,1,1-2.75-2.76A2.75,2.75,0,0,1,655.71,528.29Z"/><path class="cls-81" d="M668.74,528.29a2.75,2.75,0,1,1-2.74-2.76A2.75,2.75,0,0,1,668.74,528.29Z"/><path class="cls-13" d="M638.89,274.35a7.47,7.47,0,1,1-7.47-7.52A7.5,7.5,0,0,1,638.89,274.35Z"/><path class="cls-13" d="M592.27,274.35a7.47,7.47,0,1,1-7.47-7.52A7.5,7.5,0,0,1,592.27,274.35Z"/><path class="cls-13" d="M585.82,230.61c-.13.12-.26.22-.38.35a11.36,11.36,0,0,0-3.13,6v56.83a18.74,18.74,0,0,0,2,8.49,17.41,17.41,0,0,0,5.54,6.45l8.64,6a17.86,17.86,0,0,0,20.63,0l8.82-6.18a16.87,16.87,0,0,0,5.4-6.28,18.24,18.24,0,0,0,1.78-5.64v-64.9a4.55,4.55,0,0,0-.19-1.2Z"/><path class="cls-82" d="M636.25,231.57c-6.18-6.24-11.44-5.17-13.15-4.57h0c-3.18-3.4-22.26-8.65-34.63-1.16-26.43,16-6.34,44.42-6.34,44.42V254.82a27.27,27.27,0,0,1,.38-4.45,40.66,40.66,0,0,0,16.78,3.46c14.51,0,26.63-6.94,29.6-16.22,2.51,3,6.42,7.26,6.25,31.88C643.79,261.86,643.82,239.2,636.25,231.57Z"/><path class="cls-8" d="M435.67,462.35a3.21,3.21,0,0,1-3-2.24L423,460l.25-17.84,9.61.14a3.09,3.09,0,0,1,.31-1,3.53,3.53,0,0,1,.92-1.16l7.1-5.68a2.3,2.3,0,0,1,1.4-.44h.3l7.2.1a2.39,2.39,0,0,1-.07,4.77l-6.37-.09-1.54,2.47,4.9.07h0l13.95.2a2.39,2.39,0,0,1-.07,4.77l-14-.2v.74L462,447a2.39,2.39,0,0,1-.07,4.77l-15.07-.22v.72l13.11.18a2.39,2.39,0,0,1-.07,4.77L446.75,457v.72l10.95.15a2.39,2.39,0,0,1-.06,4.77l-11-.16h0Z"/><polygon class="cls-29" points="429.18 442.22 429.14 444.83 428.93 460.06 423 459.97 422.96 459.97 423.21 442.13 429.18 442.22"/><polygon class="cls-83" points="429.14 444.83 428.93 460.06 423 459.97 423.21 444.75 429.14 444.83"/><path class="cls-14" d="M414,440.11a33.63,33.63,0,0,1-33.47-33.71V359c0-4-.55-16-12.8-16-5.8,0-8.06,4.73-8.06,10.57h0V406.4c0,30.17,24.38,54.72,54.33,54.72h9.83v-21Z"/><path class="cls-10" d="M378.23,432v25.51a54.83,54.83,0,0,1-28.21-48v-43.8a10.5,10.5,0,1,1,21,0c0,.55-.05-7.9-.14-7.37v51.17A39.46,39.46,0,0,0,378.23,432Z"/><path class="cls-16" d="M410.67,443.67c-18.46,0-33.48-18.68-33.48-37.27V355.23c0-8.23-4.56-12.21-10.36-12.21a10.53,10.53,0,0,0-10.49,10.57h0V406.4c0,30.17,24.37,54.72,54.33,54.72h13.18V443.67Z"/><path class="cls-84" d="M202.24,413.76a4.36,4.36,0,0,1-4.36,4.35h0a4.35,4.35,0,0,1-4.35-4.35V306.35a4.35,4.35,0,0,1,4.35-4.35h0a4.36,4.36,0,0,1,4.36,4.35Z"/><path class="cls-14" d="M372.67,281.17l3.94,9a1.83,1.83,0,0,1,0,1.47,1.81,1.81,0,0,1-1.08,1l-4.46,1.53Z"/><path class="cls-84" d="M745.49,360.05a11.92,11.92,0,1,1-11.92-11.91A11.92,11.92,0,0,1,745.49,360.05Z"/><circle class="cls-85" cx="595.74" cy="273.01" r="2.75"/><circle class="cls-85" cx="619.57" cy="273.01" r="2.75"/><path class="cls-86" d="M617.82,293.55c-.87,2.74-4.65,4.81-9.18,4.81-4.3,0-7.92-1.86-9-4.39"/><path class="cls-87" d="M521.12,301.92a2.49,2.49,0,1,1-2.49-2.49A2.49,2.49,0,0,1,521.12,301.92Z"/><path class="cls-87" d="M542.72,301.92a2.5,2.5,0,1,1-2.49-2.49A2.49,2.49,0,0,1,542.72,301.92Z"/><path class="cls-88" d="M538.64,320.54c-.79,2.48-4.22,4.36-8.32,4.36-3.89,0-7.17-1.69-8.18-4"/><rect class="cls-20" x="638.26" y="356" width="14.71" height="113"/><path class="cls-24" d="M663.25,461.74a7.59,7.59,0,0,1-7.59,7.59h0a7.59,7.59,0,0,1-7.6-7.59V443.35a7.6,7.6,0,0,1,7.6-7.6h0a7.59,7.59,0,0,1,7.59,7.6Z"/><path class="cls-87" d="M671.4,303.21a2.49,2.49,0,1,1-2.49-2.49A2.49,2.49,0,0,1,671.4,303.21Z"/><path class="cls-87" d="M693,303.21a2.49,2.49,0,1,1-2.49-2.49A2.49,2.49,0,0,1,693,303.21Z"/><path class="cls-88" d="M688.92,321.83c-.79,2.48-4.21,4.35-8.32,4.35-3.89,0-7.17-1.68-8.17-4"/><path class="cls-22" d="M663.25,440.33V330.54a10,10,0,0,0-10-10h-.57a10,10,0,0,0-10,10V440.33Z"/><rect class="cls-89" x="642.68" y="440.33" width="20.58" height="7.97"/><path class="cls-22" d="M638.89,312.83s19.22,6.63,22.62,12.07a53.17,53.17,0,0,1-22.62,1.34Z"/><polygon class="cls-90" points="616.6 548.04 448.6 548.04 354.13 172.07 522.12 172.07 616.6 548.04"/></g></g></svg>