<svg xmlns="http://www.w3.org/2000/svg" xmlns:xlink="http://www.w3.org/1999/xlink" viewBox="0 0 500 500"><defs><style>.cls-1{fill:none;}.cls-2{fill:#fff;}.cls-3{fill:#1d252c;}.cls-4{fill:#ab8f5d;}.cls-5{fill:#fbd0c9;}.cls-6{fill:#362b2d;}.cls-7{fill:#fbac91;}.cls-8{fill:#ffd60a;}.cls-9{fill:#7e653b;}.cls-10{fill:#f07f1a;}.cls-11{fill:#88585e;}.cls-12{clip-path:url(#clip-path);}.cls-13{fill:#fc9b56;}.cls-14{clip-path:url(#clip-path-2);}.cls-15{fill:#f3efec;}</style><clipPath id="clip-path"><path class="cls-1" d="M368.62,66.63h0A104.24,104.24,0,0,1,472.86,170.87V235.1a0,0,0,0,1,0,0H264.38a0,0,0,0,1,0,0V170.87A104.24,104.24,0,0,1,368.62,66.63Z"/></clipPath><clipPath id="clip-path-2"><rect class="cls-1" x="274.56" y="299.47" width="188.12" height="149.31"/></clipPath></defs><g id="BACKGROUND"><rect class="cls-2" width="500" height="500"/></g><g id="OBJECTS"><path class="cls-3" d="M56.43,102.24c-30.55,3.06-7.19,29.46-.65,42.46,6.22,10.71,1.38,25,13.4,32.22,11.41,2.9,23.23-3.41,31.83-12.79C120.28,150,65.39,132,60.7,105.39"/><path class="cls-2" d="M59.46,135.92c4.47,3.91,6,9.8,6.83,15.44s1.38,11.82,4.3,17a15.9,15.9,0,0,0,2.83,3.78c.94.87,2.79,1.37,3.8.32.43-.44-.21-1.06-.67-.67-.62.54-1.11-.09-1.58-.46a10.53,10.53,0,0,1-1.45-1.46,17.78,17.78,0,0,1-2.19-3.4,33.57,33.57,0,0,1-2.66-7.94c-1.19-5.23-2-10.63-4.1-15.59a19.12,19.12,0,0,0-5-7.11c-.06-.06-.15,0-.09.08Z"/><path class="cls-2" d="M71.51,139.46A146.75,146.75,0,0,0,75,154.69c1.27,4.29,3.12,8.57,6.47,11.65a14.47,14.47,0,0,0,2.78,2,8,8,0,0,0,1.67.74,1.64,1.64,0,0,0,1.54-.26.19.19,0,0,0-.09-.36,6.78,6.78,0,0,1-.88-.25c-.24-.06-.47-.14-.7-.22a11.91,11.91,0,0,1-1.39-.68A14.43,14.43,0,0,1,82,165.58a18.67,18.67,0,0,1-3.81-4.77c-2.33-4.09-3.52-8.76-4.68-13.29q-1-4-1.87-8.09c0-.07-.13,0-.12,0Z"/><path class="cls-2" d="M79.89,140.43c.36,4.07,2.67,7.5,5.12,10.64,2.69,3.46,5.9,6.71,7.18,11a14.65,14.65,0,0,1,.65,3.53c0,.56-.06,1.12-.06,1.68a5.72,5.72,0,0,0,.34,1.74.32.32,0,0,0,.54.14c1.6-1.43,1.09-4,.59-5.88a18.47,18.47,0,0,0-3-5.77c-2.6-3.58-6.07-6.48-8.46-10.22a15.53,15.53,0,0,1-2.59-6.87c0-.17-.28-.17-.27,0Z"/><path class="cls-2" d="M87.8,142.85a25.11,25.11,0,0,1,8,9.29,29.7,29.7,0,0,1,2,5.7,22.5,22.5,0,0,1,.53,2.95c.06.51.09,1,.14,1.52a2.7,2.7,0,0,0,.48,1.38.46.46,0,0,0,.78,0,2.52,2.52,0,0,0,.33-1,6.86,6.86,0,0,0-.19-1.35c-.15-.82-.34-1.62-.57-2.42a28.12,28.12,0,0,0-1.73-4.61,31.7,31.7,0,0,0-5.5-8,29.13,29.13,0,0,0-4.15-3.6c-.08-.05-.16.08-.08.14Z"/><path class="cls-4" d="M152.41,116c-3.59-2-18.09,4-22.39,5.6-2,.73-38.21,44.13-38,45.29-6,8.67-9.94,16.45-10.63,20.67-3,18.37,6.34,44.59,19.64,48.85,1,.32,5.78-5,10.84-11.87,3.72,8.81,7.2,15.54,9.63,17.14,3.81,2.52,63.13-73.19,68.68-88.75C191.22,150,160.39,120.51,152.41,116Z"/><path class="cls-5" d="M101,102.87c1.94,3.33,25.33,31.46,25.15,31.85a41.11,41.11,0,0,1-8,12.49c-4.94,5-12.32,8.66-13,8.34-3.19-1.4-10.12-11.86-19-16.1C81.47,137.2,101,102.87,101,102.87Z"/><path class="cls-5" d="M99.85,98.41c14,12.64,9,33.68,3.2,40.15s-22.28,9.54-36.32-3.1S43.09,110.59,57.12,95,85.8,85.77,99.85,98.41Z"/><path class="cls-6" d="M73.48,122.06a2,2,0,1,1-2.88,0A2,2,0,0,1,73.48,122.06Z"/><path class="cls-6" d="M87,108.15a1.95,1.95,0,1,1-2.88,0A2,2,0,0,1,87,108.15Z"/><path class="cls-7" d="M81.4,118.9a23.21,23.21,0,0,1,2.28,5.38c.43,1.36.67,3.26,2.48,2.7C91.25,125.37,82.48,119.61,81.4,118.9Z"/><path class="cls-6" d="M86.84,101.56a8.42,8.42,0,0,0-4.5,1.33,9.38,9.38,0,0,0-1.82,1.56,4.28,4.28,0,0,0-.71,1c-.09.21-.12.42-.19.63a.93.93,0,0,0,0,.57.32.32,0,0,0,.38.22,1,1,0,0,0,.44-.27c.12-.13.27-.2.4-.32s.47-.54.71-.81A10,10,0,0,1,83.06,104a11.18,11.18,0,0,1,3.85-1.9.29.29,0,0,0-.07-.56Z"/><path class="cls-6" d="M65.22,125.16a10.89,10.89,0,0,1,1.46-4,9.64,9.64,0,0,1,1.24-1.67c.24-.26.5-.5.73-.79s.2-.32.31-.48a1,1,0,0,0,.24-.45.32.32,0,0,0-.22-.38.84.84,0,0,0-.54.07,4.76,4.76,0,0,0-.53.19,3.86,3.86,0,0,0-1,.79,9.59,9.59,0,0,0-1.4,2,8.43,8.43,0,0,0-.89,4.66c0,.29.51.41.56.07Z"/><path class="cls-2" d="M88.76,134a98.37,98.37,0,0,1,8.2-9.21C101.31,128.21,95.74,137.34,88.76,134Z"/><path class="cls-7" d="M90.11,144.16c5.11.1,10.33-1.16,14.08-4.8,3.33-3.24,4.83-7.73,5.35-12.26a33.66,33.66,0,0,0,.2-4.14c0-.7,0-1.41-.09-2.11a5.39,5.39,0,0,0-.09-1.07c-.1-.34-.27-.65-.36-1a.32.32,0,0,0-.62.08,6.88,6.88,0,0,1-.13.91,4,4,0,0,0,0,.91c0,.61.07,1.21.09,1.82a35.44,35.44,0,0,1-.06,3.57,26.49,26.49,0,0,1-1.22,6.55,15.64,15.64,0,0,1-8.19,9.63,22.55,22.55,0,0,1-9,1.77c-.08,0-.08.12,0,.13Z"/><path class="cls-3" d="M143.58,94.25c-4.41-7.14-12.91-7.32-20.39-7.46-11-.21-20.39-5.42-30-10.29C87,73.39,80.48,70.43,74,74.49a13.9,13.9,0,0,0-4.28,4.59c-31.65-3.15-42.87,47.49-8.92,65.1-15.12-7.84,9.55-29.09,12-50,2.28,1.36,5.15,1.88,7.64,2.49,6.73,1.67,14.1,1,18.53,1.83,2.44.43,6.43,5.08,6.48,7,.31,11.74,16.55,26,19.21,27.2,2.09,1,3.9,0,5.38-1.5C147.48,113.8,147.18,100.09,143.58,94.25Z"/><path class="cls-2" d="M65.75,88.33c2.73,5.09.65,11.32-1.65,16.17-1.28,2.7-2.53,5.42-3.93,8.06s-3,5.09-4.24,7.72-2.21,5.67-.66,8.42a.23.23,0,0,0,.42-.18c-.62-2.74.42-5.62,1.63-8.06,1.29-2.61,2.79-5.11,4.06-7.74s2.52-5.52,3.57-8.37a37.42,37.42,0,0,0,2.16-7.83,13.09,13.09,0,0,0-1.3-8.23s-.08,0-.06,0Z"/><path class="cls-2" d="M62.44,90.72c-2.63,6-7.47,10.65-10.36,16.51a24.36,24.36,0,0,0-1.68,16.83A18.26,18.26,0,0,0,55,132.43c.14.14.42-.05.29-.23a24.15,24.15,0,0,1-2.6-24.37,56.16,56.16,0,0,1,4.82-8,40.11,40.11,0,0,0,5-9.06c0-.06-.07-.1-.09,0Z"/><path class="cls-2" d="M52.86,88.87c-4.5,5.16-8.3,11-10.16,17.65a27.71,27.71,0,0,0,.94,18.3,18.66,18.66,0,0,0,6.12,7.85c.08.06.18-.07.11-.14a24.89,24.89,0,0,1-7.5-15.67,32.76,32.76,0,0,1,4.2-18.48A54.6,54.6,0,0,1,53,89c.09-.1,0-.24-.14-.14Z"/><path class="cls-2" d="M73.46,86.15c1.39,3.94,5.12,6.5,9,7.57,5.26,1.44,10.77.59,16.13.43a37.79,37.79,0,0,1,4.64.12c1.52.15,3,.55,4.52.65a.13.13,0,0,0,.07-.24,8.48,8.48,0,0,0-3.44-1,28.56,28.56,0,0,0-3.81-.24c-2.62,0-5.23.25-7.84.45-4.9.37-10.09.41-14.42-2.24a11.18,11.18,0,0,1-4.76-5.51c0-.06-.14,0-.12,0Z"/><path class="cls-2" d="M77.7,84.16c3.27,5,9.9,5.72,15.32,6.08,6.88.47,14.23.38,20.27,4.19a16.31,16.31,0,0,1,3.82,3.26,18.16,18.16,0,0,1,2.51,4.25c.08.19.37,0,.32-.14-.58-2.69-2.62-5-4.76-6.62a21.83,21.83,0,0,0-7.85-3.71,54,54,0,0,0-10.76-1.3,60.74,60.74,0,0,1-10.34-1C83,88.46,79.7,87,77.76,84.12c0,0-.08,0-.06,0Z"/><path class="cls-2" d="M73.13,81.5a24.85,24.85,0,0,1,19.5-1.85,55.32,55.32,0,0,1,9.9,4.69c3.18,1.82,6.31,3.74,9.35,5.79a42.15,42.15,0,0,1,4.38,3.26,21.18,21.18,0,0,1,1.9,1.89,12.15,12.15,0,0,0,1.74,1.91c.38.28.82-.18.74-.56a4.79,4.79,0,0,0-1.21-2,18.29,18.29,0,0,0-1.8-1.83,34.88,34.88,0,0,0-4-3c-3.18-2.07-6.53-3.91-9.89-5.65a71.23,71.23,0,0,0-10.12-4.66A25.43,25.43,0,0,0,73.07,81.4c-.06,0,0,.13.06.1Z"/><path class="cls-5" d="M105.1,95.57c4.83,4.1,3.52,16.22-.29,12.4-3.45-3.54-6.54-8.7-6.94-11.79C97.52,93.39,100.06,91.29,105.1,95.57Z"/><path class="cls-7" d="M99.77,98.68a2.14,2.14,0,0,1,.44-1.71A1.64,1.64,0,0,1,102,96.2a2.54,2.54,0,0,1,.73.38,4.32,4.32,0,0,1,.39.34,1.27,1.27,0,0,0,.56.27.15.15,0,0,0,.18-.18.9.9,0,0,0-.27-.54l-.44-.32a3.06,3.06,0,0,0-.85-.42,1.94,1.94,0,0,0-1.4.06,2.62,2.62,0,0,0-1.4,1.93,1.68,1.68,0,0,0,.07,1c0,.09.22,0,.18-.08Z"/><path class="cls-7" d="M100.42,96.29a5.73,5.73,0,0,1,1.18,1A3.72,3.72,0,0,1,102,98a2.63,2.63,0,0,1,.24.7l0-.32,0,0a.48.48,0,1,0,.54-.22l0,0,.25.2-.11-.14,0,0-.12-.17c-.09-.13-.19-.25-.28-.37a8.07,8.07,0,0,0-.58-.59,4.37,4.37,0,0,0-1.36-1c-.15-.06-.21.16-.1.24Z"/><rect class="cls-8" x="121.51" y="55.46" width="94.28" height="190.81"/><path class="cls-5" d="M139.72,147.74c1.85.87,5.33,2.51,4,4.85-3.93-.67-8.49-3.75-12.46-2,3.93,1,9.4,2.43,11.09,7.57.14.42,2.37,5.86.06,7.46-1.26.21-1.88-4.16-3.29-5.83-1.68-2-3.81-3.13-6.73-4.4,4.15,3.27,5,4,6.48,8.34.52,1.61.58,10.23-1.95,9-.61-.55-2-7-2.59-8.28-.66-1.48-3.55-3.69-6.08-4.72,2.76,2.22,6,6.57,6.4,10.21.22,1.91.85,4.06-.59,4.68-1.67-.24-3.3-7.86-5.68-7.41s-1,2.5-7.37,7.29c-4.68,3.52,2,44.76.92,46-3.66,4-19.7,7.12-20.67-18.87-.59-15.63,10.8-46.7,13.23-49.25C122.15,144.31,134,145.1,139.72,147.74Z"/><path class="cls-4" d="M107.57,166c9.51,2.41,13.47,6.3,15,11.32,2,6.59.25,51.64-2.2,55.43-4.09,6.31-14.13,7.69-24.15,1.05C82.14,224.48,99.85,171.23,107.57,166Z"/><path class="cls-9" d="M105.89,167.56c-.68,1.5-1.18,3.09-1.71,4.65s-1,3.12-1.49,4.69q-1.44,4.83-2.51,9.75a136.67,136.67,0,0,0-2.84,19.83c-.24,3.75-.58,7.62.19,11.32,0,.26.5.28.54,0a33.17,33.17,0,0,0,.34-4.88c0-1.68,0-3.36.08-5,.11-3.27.31-6.55.65-9.8a130.57,130.57,0,0,1,3.63-19.7c.49-1.81,1-3.61,1.55-5.4s1.23-3.55,1.74-5.35c0-.1-.13-.17-.17-.07Z"/><path class="cls-8" d="M202.66,430H53.21s14.7-55.64,28.26-56.11l46.72-1.62,46.22,1.62C188,374.36,202.66,430,202.66,430Z"/><path class="cls-10" d="M175.64,375.76c-.74.77-1.5,1.5-2.19,2.33s-1.22,1.58-1.79,2.39a44.34,44.34,0,0,0-3.19,5.45,47.37,47.37,0,0,0-4.05,11.84c-.23,1.17-.4,2.35-.54,3.53a16.86,16.86,0,0,0,.06,3.62c0,.28.5.41.55.07.16-1,.4-2,.49-3s.22-2,.38-3a48.81,48.81,0,0,1,1.33-6,45.5,45.5,0,0,1,5.08-11.29c.6-1,1.23-1.91,1.89-2.84s1.38-2,2.15-3c.09-.12-.06-.28-.17-.17Z"/><path class="cls-10" d="M82.12,375.39a23.63,23.63,0,0,1,5.25,10.09,48.26,48.26,0,0,1,1.11,12.34c0,1.22,0,2.43,0,3.65,0,.61.09,1.21.13,1.82a3.83,3.83,0,0,0,.35,1.57.24.24,0,0,0,.41,0,3.38,3.38,0,0,0,.4-1.33c.09-.56.18-1.13.23-1.7.09-1.13.06-2.27,0-3.4a48.4,48.4,0,0,0-.52-6.7A35.09,35.09,0,0,0,86,380.48a22.84,22.84,0,0,0-3.75-5.18c0-.06-.14,0-.08.09Z"/><path class="cls-11" d="M112.94,357.49h30a0,0,0,0,1,0,0V378.3a12.41,12.41,0,0,1-12.41,12.41h-5.16a12.41,12.41,0,0,1-12.41-12.41V357.49A0,0,0,0,1,112.94,357.49Z"/><rect class="cls-3" x="37.81" y="400.21" width="180.26" height="55.37"/><path class="cls-11" d="M55.61,392.74c-2.67,3.47,2.17,23.33,5.42,24.33,2.25-1.44-.41-15,.72-16.58.66,6.11,2.21,18.55,6,19.49,1.65.41.88-15.91,1.61-19,1.73,3,1.3,19,5.37,18.63,2.72-.25,2.09-19.72,3.06-19.4,2,.68-1.36,17.45,2.13,18,3.71.64,6.4-23.9,4.25-26.89C80,385.6,62.05,384.37,55.61,392.74Z"/><path class="cls-11" d="M200.26,392.74c2.67,3.47-2.17,23.33-5.42,24.33-2.25-1.44.4-15-.72-16.58-.66,6.11-2.21,18.55-6,19.49-1.65.41-.88-15.91-1.62-19-1.73,3-1.29,19-5.36,18.63-2.72-.25-2.09-19.72-3.06-19.4-2,.68,1.36,17.45-2.13,18-3.71.64-6.4-23.9-4.25-26.89C175.87,385.6,193.82,384.37,200.26,392.74Z"/><path class="cls-11" d="M155,338.71c0,18.89-17.11,31.4-27.07,31.4s-27.06-12.51-27.06-31.4,3.06-34.22,27.06-34.22S155,319.81,155,338.71Z"/><path class="cls-6" d="M112.67,363.63c3.92,2.81,8,5.71,12.9,6.55a19.14,19.14,0,0,0,12-1.89,20,20,0,0,0,2.93-1.88,5,5,0,0,0,2.23-2.68c0-.18-.13-.41-.33-.33a7,7,0,0,0-2.2,1.67,16.07,16.07,0,0,1-2.47,1.85,19.58,19.58,0,0,1-5.6,2.3,18.36,18.36,0,0,1-12.56-1.58,55.49,55.49,0,0,1-6.82-4.2c-.12-.08-.22.11-.11.19Z"/><path class="cls-6" d="M142.2,304.37c-.2-4.37-5.3-7.73-7.57-9.17-4.2-2.67-9-2.82-13.5-2.29-10,1.18-20,9.55-22.85,24.79-.67,3.54.93,17.86,2.59,21,1,1.84,12.57-19.68,14.18-21.5,0,1.6-1.74,4.85-1.68,6.43C121.12,324.46,142.43,307.74,142.2,304.37Z"/><path class="cls-6" d="M138.22,303.62c7.13-8.23,14.68-4.94,17.91,6,1.14,3.88,2.42,10,1.73,14.09-.49,2.95-1.86,13.55-4,15.07C150.27,341.4,146.88,316.15,138.22,303.62Z"/><path class="cls-6" d="M120,334.74a1.95,1.95,0,1,1-2-2.1A2,2,0,0,1,120,334.74Z"/><path class="cls-6" d="M139.39,335.13a1.95,1.95,0,1,1-2-2.1A2,2,0,0,1,139.39,335.13Z"/><path class="cls-6" d="M127.71,338.38a22.85,22.85,0,0,1-2.38,5.32c-.7,1.25-1.92,2.73-.28,3.66C129.7,350,127.94,339.65,127.71,338.38Z"/><path class="cls-6" d="M144.1,330.52a8.41,8.41,0,0,0-4.09-2.38,9,9,0,0,0-2.37-.26,3.91,3.91,0,0,0-1.27.19,1.86,1.86,0,0,0-.92.63.31.31,0,0,0,.11.42.79.79,0,0,0,.4.13c.2,0,.37.06.58.08a8.8,8.8,0,0,0,1,0,9.64,9.64,0,0,1,2.15.14,11,11,0,0,1,4,1.53c.28.18.57-.22.35-.45Z"/><path class="cls-6" d="M112.11,330.79a11,11,0,0,1,4-1.66,9.3,9.3,0,0,1,2-.22,9.73,9.73,0,0,0,1.08,0c.2,0,.38-.07.57-.1a.86.86,0,0,0,.47-.14.31.31,0,0,0,.11-.42,1.77,1.77,0,0,0-.91-.59,3.47,3.47,0,0,0-1.19-.17,9.37,9.37,0,0,0-2.47.34,8.43,8.43,0,0,0-4,2.53c-.21.22.06.64.34.44Z"/><path class="cls-2" d="M121.69,354.06c4-.44,6.61-.31,12.32-.29C134.48,359.28,124,361.43,121.69,354.06Z"/><path class="cls-11" d="M161,334.78c.39,6.32-9.26,13.78-9.14,8.38.16-4.94,1.74-10.75,3.7-13.17C157.31,327.8,160.58,328.18,161,334.78Z"/><path class="cls-6" d="M155.05,333.09a2.15,2.15,0,0,1,1.54-.87,1.62,1.62,0,0,1,1.8.76,2.41,2.41,0,0,1,.24.79,4.41,4.41,0,0,1,0,.52.67.67,0,0,0,.07.34l.12.26a.15.15,0,0,0,.26,0,.88.88,0,0,0,.19-.58,5.54,5.54,0,0,0-.07-.57,3.49,3.49,0,0,0-.29-.88,2,2,0,0,0-1-.95,2.62,2.62,0,0,0-2.36.34,1.62,1.62,0,0,0-.68.76c0,.11.13.18.17.08Z"/><path class="cls-6" d="M157.23,331.9a5.46,5.46,0,0,1,.08,1.56,3.3,3.3,0,0,1-.55,1.39l.48-.19a.48.48,0,0,0-.55.22.48.48,0,0,0,.23.68.48.48,0,0,0,.42-.86l.2.48c0-.29.1-.58.13-.87a4.53,4.53,0,0,0,0-.82,4.45,4.45,0,0,0-.22-1.66.13.13,0,0,0-.25.07Z"/><path class="cls-11" d="M94.88,334.78c-.39,6.32,9.26,13.78,9.14,8.38-.16-4.94-1.74-10.75-3.7-13.17C98.56,327.8,95.29,328.18,94.88,334.78Z"/><path class="cls-6" d="M101,333a2.26,2.26,0,0,0-1.65-1.18,2.09,2.09,0,0,0-2.33.88,3.27,3.27,0,0,0-.34.9,4.17,4.17,0,0,0-.1.6.71.71,0,0,0,0,.38,2.19,2.19,0,0,0,.16.3c0,.09.21.11.25,0a1.28,1.28,0,0,0,.2-.52,4.1,4.1,0,0,1,0-.5,2.48,2.48,0,0,1,.18-.76,1.47,1.47,0,0,1,.73-.78,2.41,2.41,0,0,1,2,.17,1.36,1.36,0,0,1,.68.59A.1.1,0,0,0,101,333Z"/><path class="cls-6" d="M98.38,331.83a4.9,4.9,0,0,0-.22,1.66,7.58,7.58,0,0,0,0,.82c0,.29.1.58.14.87l.2-.48a.5.5,0,0,0-.23.55.49.49,0,0,0,.65.31.48.48,0,0,0,.25-.63.47.47,0,0,0-.57-.27l.48.19a3.3,3.3,0,0,1-.55-1.39,5.46,5.46,0,0,1,.08-1.56.14.14,0,0,0-.26-.07Z"/><g class="cls-12"><rect class="cls-8" x="264.38" y="66.63" width="208.48" height="168.47"/><path class="cls-5" d="M354.38,167.28h27.47a0,0,0,0,1,0,0v12.41a12.41,12.41,0,0,1-12.41,12.41h-2.65a12.41,12.41,0,0,1-12.41-12.41V167.28A0,0,0,0,1,354.38,167.28Z"/><path class="cls-5" d="M392.69,153.42c0,17.16-15.53,28.52-24.58,28.52s-24.57-11.36-24.57-28.52,2.78-31.06,24.57-31.06S392.69,136.27,392.69,153.42Z"/><path class="cls-7" d="M354.31,176c1.37.93,2.64,2,4,2.91a20.89,20.89,0,0,0,6.24,2.9,18.82,18.82,0,0,0,11.24-1,16.26,16.26,0,0,0,6.39-4.6c.41-.48-.31-1.19-.7-.7a16.36,16.36,0,0,1-10.9,5.87,17,17,0,0,1-5.32,0,19.21,19.21,0,0,1-6.32-2.56c-1.56-.94-3-2.08-4.51-3.06-.15-.1-.29.14-.14.24Z"/><path class="cls-4" d="M367.92,185.31c13.53,0,43.6,10.67,43.6,10.67s12.4,26,20,49.32H305.9c3-18.79,16.25-49.77,16.25-49.77S357.09,185.31,367.92,185.31Z"/><path class="cls-13" d="M393.68,130.89c1.08-11.31-17.41-24.91-26.39-26.77-5.39-1.11-25.55,1.48-16.31,9.57-6.15.35-12.64-.35-17.81,3.75-6.9,5.49-.45,7.53,5.45,7.8-4.34,3.93-7.52,11.48-.17,14.71,6.21,2.73,12.08-1.43,17.15-4.48-2.16,9.5,19-2.33,21.34-3.18C377.63,140.62,392.64,132.24,393.68,130.89Z"/><path class="cls-10" d="M354.85,108.45A27.68,27.68,0,0,1,371.42,111a32.57,32.57,0,0,1,7.06,4.54,58.28,58.28,0,0,1,5.69,5.75c1,1.12,2,2.24,2.95,3.4.5.6,1,1.24,1.53,1.79a13.58,13.58,0,0,0,1.73,1.4c.25.17.64-.12.53-.4-1-2.62-3.09-4.71-5-6.69a47.8,47.8,0,0,0-6.46-5.42c-4.66-3.32-9.67-6.06-15.36-7.08a25.12,25.12,0,0,0-9.23,0,.06.06,0,0,0,0,.12Z"/><path class="cls-10" d="M337.28,121.34A27,27,0,0,1,351.9,117a26.37,26.37,0,0,1,7.49,1,48.08,48.08,0,0,1,7.36,3.12,41.63,41.63,0,0,0,4.16,1.83,16.41,16.41,0,0,0,2.06.65,7.45,7.45,0,0,0,2.35-.18.2.2,0,0,0,.05-.4c-.58-.22-1-.69-1.54-.92s-1.4-.38-2.08-.59c-1.31-.41-2.6-.89-3.89-1.36-2.58-1-5.11-2.05-7.77-2.78a28,28,0,0,0-15.1.19,27.58,27.58,0,0,0-7.78,3.66c-.07,0,0,.17.07.12Z"/><path class="cls-10" d="M346.69,125.05c4.67-.85,9.33.32,13.84,1.49a53.37,53.37,0,0,0,13.63,2.07,13.42,13.42,0,0,0,3.41-.23,2,2,0,0,0,1.24-.78,1.39,1.39,0,0,0,0-1.18.38.38,0,0,0-.63-.17c-.07.09-.15.11,0,0a2.17,2.17,0,0,1-.25,0,2.62,2.62,0,0,0-.53.2,3.59,3.59,0,0,1-1,.33,30.06,30.06,0,0,1-3.29.34,39.2,39.2,0,0,1-6.59-.07c-4.36-.47-8.58-1.79-12.93-2.34a22.4,22.4,0,0,0-7,.09c-.11,0-.06.18,0,.16Z"/><path class="cls-10" d="M343.61,135a12,12,0,0,1,4.45-3.51,15,15,0,0,1,6.36-1.27,34.62,34.62,0,0,1,6.87,1,32.7,32.7,0,0,0,6.51,1c2,0,4.91-.28,5.65-2.46a.3.3,0,0,0-.29-.38,7.08,7.08,0,0,0-1.22.08,8.76,8.76,0,0,0-1.58.49,14.09,14.09,0,0,1-2.87.53,33.93,33.93,0,0,1-6.75-.48c-4.21-.48-8.62-.76-12.58,1.07a10.77,10.77,0,0,0-4.65,3.82c0,.07.05.14.1.08Z"/><path class="cls-13" d="M363.17,185.63c0,2.55-.53,6.93,2.11,8.34,1.88,1,6.64.75,8.05-1,1.18-1.46.94-7.26-.29-8.51S365.22,183.62,363.17,185.63Z"/><path class="cls-13" d="M365.17,192.37s-6.33,49.63-5.32,50.78c1.38,1.57,17.79,1.58,18.94.07.92-1.21-5-44.85-6.49-50.85C370.9,192.13,367.26,192.75,365.17,192.37Z"/><path class="cls-10" d="M364.46,194a5.77,5.77,0,0,0,2.08.58,8.92,8.92,0,0,0,2.19.09,10.93,10.93,0,0,0,2.13-.38,4.67,4.67,0,0,0,1.09-.37.83.83,0,0,0,.41-.49l0-.16v.1a1.59,1.59,0,0,0,.12-.27.28.28,0,0,0-.27-.36.54.54,0,0,0-.22,0c.13.05.11.05-.05,0a.89.89,0,0,0-.6.07c-.3.14-.56.35-.85.5a7.36,7.36,0,0,1-1.88.6,8.92,8.92,0,0,1-2,.11c-.69,0-1.31-.29-2-.39a.22.22,0,0,0-.17.41Z"/><path class="cls-4" d="M366.91,184c-2.42,4.16-4.48,11.1-6.32,11.31-2.44.28-10.14-2.81-14.6-6,2.4-2.47,6.53-10,8.39-10C357,179.36,362.76,183.25,366.91,184Z"/><path class="cls-4" d="M369.31,184c2.42,4.16,4.48,11.1,6.33,11.31,2.43.28,10.13-2.81,14.59-6-2.4-2.47-6.52-10-8.38-10C379.23,179.36,373.46,183.25,369.31,184Z"/><path class="cls-9" d="M369.47,184.48c1.63,3.1,3.06,6.29,4.78,9.34a9.11,9.11,0,0,0,.92,1.45c.34.41.75.33,1.27.29a24.33,24.33,0,0,0,6.59-1.65,33.26,33.26,0,0,0,7.43-3.7.54.54,0,1,0-.66-.85,22,22,0,0,1-6.1,3.52,28.47,28.47,0,0,1-6.5,2A10.26,10.26,0,0,1,376,195h-.28c-.17,0,.11.07,0,0a.94.94,0,0,1-.1-.12c-.27-.45-.59-.87-.85-1.33-.9-1.55-1.73-3.14-2.58-4.71s-1.57-3-2.51-4.45a.12.12,0,1,0-.21.12Z"/><path class="cls-9" d="M366.22,184.36c-1.82,2.75-3.18,5.81-4.81,8.68-.31.54-.61,1.09-1,1.6a2.26,2.26,0,0,1-.28.35c0-.05-.08,0,0,0s-.13,0-.16,0l-.65,0a24.46,24.46,0,0,1-6.34-1.69,23.42,23.42,0,0,1-7-3.87.54.54,0,1,0-.66.85,32.62,32.62,0,0,0,6.57,3.37,28.56,28.56,0,0,0,6.77,1.91c.5.06,1.39.3,1.82-.07a4.3,4.3,0,0,0,.77-1.12c.94-1.58,1.77-3.22,2.58-4.86s1.62-3.32,2.49-5a.13.13,0,0,0-.22-.12Z"/><path class="cls-7" d="M368.4,149.91a23.28,23.28,0,0,1-2.38,5.32c-.71,1.25-1.93,2.73-.29,3.66C370.38,161.53,368.62,151.18,368.4,149.91Z"/><path class="cls-6" d="M362.37,165.59a18.4,18.4,0,0,0,5.74.93,21.75,21.75,0,0,0,6.59-1Z"/><path class="cls-6" d="M396.93,144.56a12.09,12.09,0,1,1-12.08-12.08A12.08,12.08,0,0,1,396.93,144.56Z"/><path class="cls-2" d="M394.7,144.56a9.86,9.86,0,1,1-9.85-9.85A9.85,9.85,0,0,1,394.7,144.56Z"/><path class="cls-6" d="M388.29,144.56a3.45,3.45,0,1,1-3.44-3.44A3.45,3.45,0,0,1,388.29,144.56Z"/><circle class="cls-6" cx="351.38" cy="144.56" r="12.08"/><circle class="cls-2" cx="351.38" cy="144.56" r="9.85"/><path class="cls-6" d="M354.83,144.56a3.45,3.45,0,1,1-3.45-3.44A3.45,3.45,0,0,1,354.83,144.56Z"/><path class="cls-6" d="M362.21,141.67c1.17-1.84,10.53-1.86,12.43,0a34,34,0,0,1,0,7.24c-2.13-1.76-10.9-1-12.72.09C361.49,148.06,361.85,143,362.21,141.67Z"/><path class="cls-5" d="M380.76,156.23c-.89-2.57,9.64,2.25,13.88,1.72,4.78-.6,6.56-9,5.33-12.88-1.77-5.58-8.51-9-13.42-11-2.33-.94-8.25-2.62-3.91-3.65,12.06-2.89,38.79,18.32,33.44,35.13-.42,1.32.94,10.89,0,12.34-2.39,3.7-8.2-.81-11.4,0C396.42,161.57,381.49,161.39,380.76,156.23Z"/><path class="cls-4" d="M398.35,170.61c1.18-.05,16.65-7.17,19.26-6.89.95.1,5.45,7.94,5.7,11-8.33,3.24-10.8,4.7-19.06,8.08C401.86,180.46,400.33,179.69,398.35,170.61Z"/><path class="cls-4" d="M403.14,178c6.92,13.7,13.52,56.07,26.72,67.26,7.9,5.34,27.59-2.22,23.58-16.75-3.62-14.15-25.52-47.6-34.5-58.76C416.61,165.71,407.17,173.17,403.14,178Z"/><path class="cls-9" d="M409.14,195.62a116.56,116.56,0,0,0,5.1,21.56,122,122,0,0,0,9.07,20.24q1.51,2.7,3.19,5.31a20.86,20.86,0,0,0,3.71,5c.27.22.81,0,.66-.38a25.73,25.73,0,0,0-2.82-4.62q-1.49-2.28-2.88-4.61-2.85-4.76-5.26-9.76a124.12,124.12,0,0,1-7.73-20.61,119,119,0,0,1-2.71-12.19c0-.22-.36-.13-.33.09Z"/><path class="cls-9" d="M405.16,182.78c5-2,10-4.15,15.1-6l1.59-.58c.2-.07.41-.12.62-.18a.79.79,0,0,1,.37,0c.5,0,.76-.49.69-.91v0l0,.33a.69.69,0,0,0,.07-.15l-.26.26h0c.43-.16.25-.88-.2-.7.17-.07.41.1.18,0s.25.25.18.14a.72.72,0,0,0-1.13-.14c-.12.13,0,0-.23.16s-.31.18-.47.25c-.43.21-.89.38-1.34.57-1.19.5-2.38,1-3.58,1.51-2.73,1.11-5.46,2.23-8.18,3.39-1.2.52-2.43,1-3.59,1.63-.29.15-.09.65.22.53Z"/><path class="cls-9" d="M404.83,175a1.17,1.17,0,1,1-1.16-1.16A1.16,1.16,0,0,1,404.83,175Z"/><path class="cls-7" d="M380.62,156.13c0,2.67,3.18,4.15,5.21,5.21,1.09.57,2.2,1.11,3.31,1.63l1.13.53a.74.74,0,0,0,.44.11c.15,0,.18,0,0,0,.22.1.41-.23.19-.33.11,0,0,0,0-.06a.7.7,0,0,0-.32-.24c-.34-.17-.7-.3-1-.46-1-.45-2-.91-3-1.39-2.1-1-5.36-2.31-5.64-5a.13.13,0,0,0-.25,0Z"/><path class="cls-7" d="M386.57,156.5c1,.34,2,.67,3.08.95l1.41.41c.45.13,1,.39,1.37.09a.19.19,0,0,0,0-.29c-.3-.37-.78-.31-1.23-.35a11.52,11.52,0,0,1-1.54-.26c-1-.25-2-.55-3-.85a.16.16,0,0,0-.09.3Z"/><path class="cls-5" d="M357,156.23c.89-2.57-9.64,2.25-13.89,1.72-4.78-.6-6.56-9-5.32-12.88,1.77-5.58,8.5-9,13.42-11,2.32-.94,8.24-2.62,3.9-3.65-12-2.89-38.79,18.32-33.44,35.13.42,1.32-.94,10.89,0,12.34,2.4,3.7,8.21-.81,11.4,0C341.37,161.57,356.3,161.39,357,156.23Z"/><path class="cls-4" d="M339.45,170.61c-1.18-.05-16.65-7.17-19.26-6.89-.95.1-5.46,7.94-5.71,11,8.33,3.24,10.81,4.7,19.07,8.08C335.93,180.46,337.46,179.69,339.45,170.61Z"/><path class="cls-4" d="M334.65,178c-6.92,13.7-13.52,56.07-26.72,67.26-7.9,5.34-27.59-2.22-23.57-16.75,3.61-14.15,25.52-47.6,34.49-58.76C321.18,165.71,330.62,173.17,334.65,178Z"/><path class="cls-9" d="M328.32,195.53a124.68,124.68,0,0,1-5.62,21.3,120.18,120.18,0,0,1-9.3,19.95q-1.56,2.68-3.24,5.28a30.32,30.32,0,0,0-3.23,5.26c-.16.4.38.6.65.38a19,19,0,0,0,3.31-4.33q1.5-2.33,2.9-4.73,2.77-4.8,5.1-9.84a117.41,117.41,0,0,0,7.38-20.9,122.1,122.1,0,0,0,2.39-12.28c0-.22-.3-.31-.34-.09Z"/><path class="cls-9" d="M332.86,182.25c-2.27-1.2-4.72-2.11-7.08-3.09-2.63-1.09-5.26-2.16-7.87-3.27-.52-.22-1-.43-1.56-.66a4.37,4.37,0,0,1-.57-.29c-.22-.12-.2-.08-.31-.2a.72.72,0,0,0-1.13.14c-.07.11.31-.21.18-.14s0-.06.17,0c-.44-.17-.63.53-.2.7h0l-.26-.26a1,1,0,0,0,.07.15c0-.11,0-.22,0-.33v0c-.07.42.19,1,.7.91.19,0,0,0,.27,0l.52.13c.47.14.92.33,1.37.5,1.21.44,2.42.87,3.61,1.34,2.76,1.08,5.52,2.17,8.26,3.29,1.22.5,2.42,1,3.64,1.53.31.12.51-.38.23-.53Z"/><path class="cls-9" d="M333,175a1.17,1.17,0,1,0,1.17-1.16A1.16,1.16,0,0,0,333,175Z"/><path class="cls-7" d="M356.92,156.13c-.17,1.67-1.62,2.78-3,3.58-.89.52-1.83,1-2.76,1.45s-2,1-3,1.43l-1,.46-.33.13-.15.06c-.25.12.09,0,0,0l.29.08c.16.16,0,.37.12.18a.19.19,0,0,0-.16-.28c-.59,0-.55.73,0,.6a9.83,9.83,0,0,0,1.92-.89,47.41,47.41,0,0,0,5.73-3.13c1.25-.85,2.54-2,2.54-3.67a.13.13,0,0,0-.25,0Z"/><path class="cls-7" d="M351.14,156.2c-1.26.38-2.54.68-3.82.94a19.54,19.54,0,0,1-2,.32l-.83.09a1.12,1.12,0,0,0-.69.31c-.12.1,0,.26.08.3a1,1,0,0,0,.75.08l.82-.21c.66-.18,1.32-.34,2-.5,1.28-.3,2.55-.62,3.8-1,.19-.06.11-.36-.08-.3Z"/></g><g class="cls-14"><rect class="cls-8" x="274.56" y="299.47" width="188.12" height="149.31"/><rect class="cls-4" x="274.56" y="307.48" width="188.12" height="8.64"/><rect class="cls-4" x="274.56" y="319.83" width="188.12" height="8.64"/><rect class="cls-4" x="274.56" y="332.18" width="188.12" height="8.64"/><polygon class="cls-4" points="462.68 353.17 415.38 363.22 274.56 353.17 274.56 344.54 415.26 354.58 462.68 344.54 462.68 353.17"/><polygon class="cls-4" points="462.68 365.52 415.13 368.56 274.56 365.52 274.56 356.89 415.08 359.92 462.68 356.89 462.68 365.52"/><rect class="cls-4" x="274.56" y="369.24" width="188.12" height="8.64"/><rect class="cls-4" x="274.56" y="381.6" width="188.12" height="8.64"/><rect class="cls-4" x="274.56" y="393.95" width="188.12" height="8.64"/><rect class="cls-4" x="274.56" y="406.3" width="188.12" height="8.64"/><rect class="cls-4" x="274.56" y="418.65" width="188.12" height="8.64"/><path class="cls-9" d="M347.64,358.52c1.93.45,3.9.7,5.86,1,3,.41,6.08.75,9.12,1.07,7.7.81,15.42,1.5,23.14,2.14,7.16.6,14.32,1.13,21.48,1.66,2.28.16,4.58.3,6.87.41a14.06,14.06,0,0,0,3.11,0c3.17-.58,6.32-1.41,9.45-2.2a113.49,113.49,0,0,0,11.14-3.24,13.9,13.9,0,0,0,1.43-.76c.21-.1,0-.41-.18-.31a3.88,3.88,0,0,1-.76.21c-.32.09-.62.23-.92.34-.77.28-1.54.53-2.32.77-1.89.59-3.79,1.13-5.71,1.64-3.61,1-7.25,1.9-10.91,2.69a11.85,11.85,0,0,1-3.35.33c-2-.07-4-.19-6.06-.32q-10.2-.61-20.4-1.4c-7.8-.61-15.6-1.26-23.39-2-5.49-.54-11.05-1-16.49-2-.34-.06-.69-.13-1-.21-.18,0-.26.23-.08.27Z"/><path class="cls-11" d="M419.76,369.28c1.35-5-10,.49-9.31,4.34,3.28,18.59,0,28.11,2.44,33.72s8.15,7,12.83,11.85C432.24,415.36,418.87,372.57,419.76,369.28Z"/><path class="cls-11" d="M376.77,388.49c4.37,3.61,26.27,10.78,39.85,18.35,7.14,4,9.1,12.35,9.1,12.35-22.89,5-40.65-9.31-55.75-11.82C354,404.72,369.22,393.58,376.77,388.49Z"/><path class="cls-11" d="M419.32,352.09c-1.25.86.55,8.49-.06,9.43-.5-3.46-1.64-10.49-3.79-10.94-1-.2-.16,9.05-.52,10.81-1-1.67-1.13-10.77-3.44-10.47-1.54.2-.77,11.25-1.32,11.08-1.18-.34.4-9.93-1.59-10.2s-2.3,13.32-1.85,15.36c1.95,8.77,7.89,17.08,11.36,16.83,1.42-.1,2.92-4.23,3.5-8C422.31,371.46,422.16,352.28,419.32,352.09Z"/><path class="cls-13" d="M341.72,377.48c21.71,4.17,46.27,12.71,50.73,16.47,5.14,4.33,1.25,12.71-2.72,21-.65,1.35-10.79-1.29-11.46.24-4.27,9.88-5.07,19.16.06,39.78.22,3.07-64.35,11.27-63.51-4.17C311.39,371.31,321.46,376.89,341.72,377.48Z"/><path class="cls-10" d="M367.53,385.18c-4.9,1.48-7.48,6.94-7.09,11.79.46,5.72,4.25,10.51,8.8,13.72a34,34,0,0,0,9.15,4.6.21.21,0,0,0,.16-.39c-2.52-1.26-5.13-2.38-7.53-3.88a24.45,24.45,0,0,1-6.27-5.46c-3.21-4.06-4.82-9.61-2.62-14.52a11.45,11.45,0,0,1,5.46-5.73c.07,0,0-.15-.06-.13Z"/><path class="cls-11" d="M385.33,362.74a18.59,18.59,0,0,1-.66,2.19,15,15,0,0,1-2.37,4.32c-2.28,2.82-5.72,1.7-10.65,2.3-6.3.77-9.41-6.17-11.28-11.32-3.89-10.68,3.78-26.23,19.94-30.12C384.17,337.44,387.87,352.43,385.33,362.74Z"/><path class="cls-3" d="M355,318c7.1-1.73,18.51-1.51,24.85,3,2.64,1.89,6.18,7.1,4.57,10.53-2.8,6-12.16,8.44-16.6,13.59-.88,1-3.78.08-4.12,1.22-1,3.43.21,7.24,2.08,10.43,5.2,8.87,15.49,16.32,7.53,26.94-11.43,15.25-44.43,8.56-50.72-8.63-5.38-14.7,1.29-31.66,10.79-43.07C339.34,324.85,345.44,320.29,355,318Z"/><path class="cls-15" d="M373,323.72c-5.5,7.22-15.37,9.27-20.8,16.61a13.64,13.64,0,0,0-2.56,5.73,14.45,14.45,0,0,0,.51,6.69,36,36,0,0,0,2.87,6.51,65.37,65.37,0,0,1,3.24,6.28,18.37,18.37,0,0,1,1.54,7.15,17.16,17.16,0,0,1-.38,3.43,9.8,9.8,0,0,1-1.15,3.31.35.35,0,0,0,.55.43,11.66,11.66,0,0,0,1.78-2.47,7.26,7.26,0,0,0,.76-3,18.45,18.45,0,0,0-1.19-6.27c-1.5-4.44-4.25-8.28-6.15-12.53a18.53,18.53,0,0,1-1.81-6.91,12.42,12.42,0,0,1,1.67-6.54c2.22-3.87,6-6.58,9.68-8.91,4.23-2.66,8.68-5.23,11.65-9.36.09-.13-.12-.24-.21-.12Z"/><path class="cls-15" d="M354.59,329c-6,4.71-11.61,10.56-13.23,18.26a18.69,18.69,0,0,0,1.13,11.22c1.43,3.43,3.64,6.69,4.34,10.39a11.32,11.32,0,0,1-.34,5.42,13.16,13.16,0,0,1-2.51,4.35c-.26.33,0,1,.49.83,3.08-1.21,3.74-5,3.43-7.89-.38-3.58-1.84-6.77-3.42-10A36.45,36.45,0,0,1,342.1,356a17,17,0,0,1-.69-6,22.86,22.86,0,0,1,4.08-11.27,45.27,45.27,0,0,1,9.3-9.6c.14-.12-.06-.31-.2-.2Z"/><path class="cls-15" d="M359.27,358.12c2.57,3.83,5.05,7.67,5.92,12.28.75,4-.19,8.5-3.22,11.37a10.44,10.44,0,0,1-2.68,1.83,32.24,32.24,0,0,1-3,1.45.38.38,0,0,0,.1.75,7.07,7.07,0,0,0,3.17-.23,11.43,11.43,0,0,0,2.78-1.64,10.93,10.93,0,0,0,3.69-5.3c1.44-4.5,0-9.33-2.07-13.36a71.76,71.76,0,0,0-4.55-7.26c-.08-.12-.27,0-.19.11Z"/><path class="cls-15" d="M343.36,329.65c-4.15,5.48-8.13,11.37-10.73,17.77-2.36,5.82-3.44,12.26-2.13,18.47.65,3.11,1.89,6.81,4.54,8.78.3.22.56-.19.45-.45-.58-1.35-1.34-2.65-2-4a21.43,21.43,0,0,1-1.42-4,27.77,27.77,0,0,1-.68-8.76c.49-6.45,3.1-12.47,6.29-18,1.89-3.28,4-6.4,6.05-9.61.15-.24-.22-.44-.39-.22Z"/><path class="cls-15" d="M327.48,351.43a28.73,28.73,0,0,0-2.22,12.72,21,21,0,0,0,3.36,10.9,8.7,8.7,0,0,0,2.05,2,6.35,6.35,0,0,0,2.59,1.14.21.21,0,0,0,.14-.35c-.6-.54-1.26-1-1.81-1.55s-1.08-1.22-1.59-1.86a15.35,15.35,0,0,1-2.37-4.4,26.59,26.59,0,0,1-1.28-11.61,27,27,0,0,1,1.62-6.86c.12-.31-.37-.43-.49-.14Z"/><path class="cls-6" d="M381,346.13c0,1,.25,1.81.6,1.82s.66-.8.67-1.8-.25-1.81-.6-1.81S381,345.13,381,346.13Z"/><path class="cls-6" d="M385.66,348.91a19.75,19.75,0,0,0,2,4.5c.59,1.06,1.63,2.31.24,3.1C384,358.74,385.48,350,385.66,348.91Z"/><path class="cls-6" d="M376.69,342.64a7.48,7.48,0,0,1,2.56-1.19,4.83,4.83,0,0,1,1.25-.17,3.16,3.16,0,0,0,1.5-.14l-.27.07a1.51,1.51,0,0,0,.52-.11.39.39,0,0,0,.14-.54,1.28,1.28,0,0,0-.39-.34l.19.19a1.86,1.86,0,0,0-1.65-.56,5.25,5.25,0,0,0-4.24,2.4c-.15.23.17.55.39.39Z"/><path class="cls-11" d="M363.13,347.09c-.7,6.28,5.13,14.17,5.44,8.79.24-4.94-.39-10.81-1.51-13.32C366.06,340.3,363.87,340.52,363.13,347.09Z"/><path class="cls-6" d="M367.32,345.63a1.7,1.7,0,0,0-.93-1.23,1.31,1.31,0,0,0-.87-.1,1.47,1.47,0,0,0-.81.66,2.87,2.87,0,0,0-.33.76c-.11.36-.14.73-.23,1.09a.34.34,0,0,0,.09.32s0,0,0,0l0,.07.06.1a.16.16,0,0,0,.26,0c.05-.07.1-.14.14-.21l-.1.11,0,0a.32.32,0,0,0,.16-.28,3.74,3.74,0,0,1,.08-.89c0-.12.05-.23.08-.34l.06-.17a.19.19,0,0,1,0-.07s0-.1,0-.06l.12-.23.07-.11h0l0,0,.15-.15s0,0,0,0l.1-.06h0l.05,0,.07,0,.09,0H366l.18,0,.09,0s.05,0,0,0l0,0,.17.09a1.46,1.46,0,0,1,.28.21,1.25,1.25,0,0,1,.38.58c0,.1.21.09.19,0Z"/><path class="cls-6" d="M365.61,344.32a6.25,6.25,0,0,0-.28,1.61c0,.28-.07.55-.08.82s0,.54,0,.8l.31-.41a.48.48,0,0,0,.18.94.47.47,0,0,0,.41-.54.48.48,0,0,0-.48-.41l.37.21a3.13,3.13,0,0,1-.2-.66,5.23,5.23,0,0,1-.11-.78,11.31,11.31,0,0,1,.15-1.54c0-.16-.21-.17-.26,0Z"/></g></g></svg>